<svg xmlns="http://www.w3.org/2000/svg" width="24" height="24" viewBox="0 0 24 24" fill="none" id="weapon_light_bowgun">
  <path fill-rule="evenodd" clip-rule="evenodd" d="M18.277 10.1408V7.16328L15.427 4.34328H13.267V2.55078H10.7395V4.35078H8.57953L5.72953 7.17078V10.1483L5.02453 9.82578L3.68203 10.3958L3.08203 11.3258V12.5483L3.42703 13.3808L4.22203 14.1758L5.05453 14.5208H6.45703L7.28953 14.1758L8.11453 13.3508L8.45953 12.5183V8.34078L9.03703 7.77007V10.6283L9.17203 11.2358L10.6795 15.9683L10.672 17.1533L10.4095 17.6633L10.117 18.2333L9.95203 19.1258V20.1833L10.372 21.0683L10.792 21.4358L11.557 21.6083H12.517L13.4845 21.1958L13.6945 20.9858L14.032 19.9358V18.9158L13.762 18.0233H16.747V14.7308H14.2195V15.2033H13.597L14.812 11.2508L14.947 10.6433V7.78421L15.5245 8.34828V12.5258L15.8695 13.3583L16.6945 14.1833L17.527 14.5283H18.9295L19.7621 14.1833L20.5571 13.3883L20.9021 12.5558V11.3333L20.3021 10.4033L18.7495 9.75078L18.277 10.1408ZM11.662 4.28326H12.337C12.4345 4.28326 12.517 4.20076 12.517 4.10326V3.47326C12.517 3.37576 12.4345 3.29326 12.337 3.29326H11.662C11.5645 3.29326 11.482 3.37576 11.482 3.47326V4.10326C11.482 4.20076 11.5645 4.28326 11.662 4.28326ZM19.0645 10.6508L20.002 11.0783C20.092 11.1233 20.1595 11.2358 20.167 11.3333V12.5558C20.167 12.6533 20.107 12.7883 20.0395 12.8558L19.2446 13.6508C19.1771 13.7258 19.042 13.7783 18.9445 13.7783H17.542C17.4445 13.7783 17.3095 13.7183 17.242 13.6508L16.417 12.8258C16.342 12.7583 16.2895 12.6233 16.2895 12.5258V8.21326C16.2895 8.11576 16.2295 7.98076 16.162 7.91326L14.692 6.46576C14.6245 6.39826 14.4895 6.34576 14.392 6.34576H9.60703C9.50953 6.34576 9.37453 6.39826 9.30703 6.46576L7.83703 7.91326C7.76953 7.98076 7.70953 8.11576 7.70953 8.21326V12.5258C7.70953 12.6233 7.64953 12.7583 7.58203 12.8258L6.75703 13.6508C6.68953 13.7258 6.55453 13.7783 6.45703 13.7783H5.05453C4.95703 13.7783 4.82203 13.7183 4.75453 13.6508L3.95953 12.8333C3.88453 12.7658 3.83203 12.6308 3.83203 12.5333V11.3108C3.83203 11.2133 3.89953 11.1008 3.98953 11.0633L4.92703 10.6358C4.94203 10.6283 4.95703 10.6208 4.97203 10.6208H4.98703H5.02453H5.03203H5.03953C5.04703 10.6208 5.05453 10.6226 5.06203 10.6245C5.06953 10.6264 5.07703 10.6283 5.08453 10.6283C5.09203 10.632 5.09953 10.6339 5.10703 10.6358C5.11453 10.6376 5.12203 10.6395 5.12953 10.6433C5.13384 10.6476 5.13568 10.6494 5.13789 10.6502C5.13952 10.6508 5.14134 10.6508 5.14453 10.6508C5.14828 10.6545 5.15391 10.6564 5.15953 10.6583C5.16516 10.6601 5.17078 10.662 5.17453 10.6658C5.17828 10.6658 5.18016 10.6676 5.18203 10.6695C5.18391 10.6714 5.18578 10.6733 5.18953 10.6733C5.20453 10.6808 5.21953 10.6958 5.22703 10.7033L5.51203 10.9883C5.57953 11.0558 5.57953 11.1683 5.51203 11.2358L5.20453 11.5433C5.12953 11.6108 5.07703 11.7458 5.07703 11.8433V12.0383C5.07703 12.1358 5.13703 12.2708 5.20453 12.3383L5.27203 12.4058C5.33953 12.4808 5.47453 12.5333 5.57203 12.5333H5.94703C6.04453 12.5333 6.17953 12.4733 6.24703 12.4058L6.34453 12.3083C6.41953 12.2408 6.47203 12.1058 6.47203 12.0083V7.68826C6.47203 7.59076 6.53203 7.45576 6.59953 7.38826L8.78203 5.23576C8.84953 5.16826 8.98453 5.11576 9.08203 5.11576H14.8795C14.977 5.11576 15.112 5.16826 15.1795 5.23576L17.3845 7.40326C17.452 7.47076 17.512 7.60576 17.512 7.70326V12.0233C17.512 12.1208 17.572 12.2558 17.6395 12.3233L17.7445 12.4208C17.812 12.4958 17.947 12.5483 18.0445 12.5483H18.4195C18.517 12.5483 18.652 12.4883 18.7195 12.4208L18.7871 12.3533C18.8621 12.2858 18.9145 12.1508 18.9145 12.0533V11.8583C18.9145 11.7608 18.8546 11.6258 18.7871 11.5583L18.4795 11.2508C18.412 11.1833 18.412 11.0708 18.4795 11.0033L18.7646 10.7183C18.7796 10.7033 18.7871 10.6958 18.8021 10.6883C18.8058 10.6883 18.8077 10.6864 18.8095 10.6845C18.8114 10.6826 18.8133 10.6808 18.8171 10.6808C18.8208 10.677 18.8264 10.6751 18.8321 10.6733C18.8377 10.6714 18.8433 10.6695 18.847 10.6658C18.8514 10.6614 18.8532 10.6596 18.8553 10.6588C18.857 10.6583 18.8589 10.6583 18.862 10.6583C18.877 10.6508 18.892 10.6433 18.9071 10.6433C18.9221 10.6358 18.9371 10.6358 18.9521 10.6358H18.9595H18.9671H19.0046H19.0196C19.0271 10.6395 19.0346 10.6414 19.0421 10.6433C19.0496 10.6451 19.057 10.647 19.0645 10.6508ZM13.2895 18.8483C13.2895 18.6507 13.192 18.4693 13.0983 18.295C13.0817 18.2642 13.0653 18.2337 13.0495 18.2033C12.9895 18.0908 12.9314 17.9764 12.8733 17.862C12.8152 17.7477 12.7571 17.6333 12.697 17.5208C12.6145 17.3633 12.562 17.1983 12.562 17.0183C12.562 16.9565 12.5626 16.8328 12.5632 16.6841V16.6839C12.565 16.2726 12.5675 15.6698 12.562 15.6533V15.6308C12.6295 15.6008 12.6895 15.5558 12.7195 15.4958L14.1145 10.9658C14.1595 10.8833 14.2045 10.7333 14.2045 10.6358V7.33576H9.79453V10.6358C9.79453 10.7333 9.83203 10.8833 9.88453 10.9658L11.2795 15.4958C11.3095 15.5483 11.3695 15.6008 11.437 15.6308V15.6533V16.8383C11.437 16.8528 11.4371 16.8672 11.4371 16.8817C11.4376 17.0687 11.4381 17.2492 11.3545 17.4233C11.2794 17.5735 11.2017 17.7224 11.1241 17.8711C11.0157 18.0788 10.9076 18.286 10.807 18.4958C10.7211 18.6743 10.7226 18.8528 10.7241 19.0416C10.7243 19.0669 10.7245 19.0924 10.7245 19.1183V20.0858C10.732 20.2508 10.822 20.3633 10.927 20.4683C10.9473 20.4885 10.9676 20.5103 10.9882 20.5322C11.0515 20.5997 11.1178 20.6706 11.197 20.7158C11.3139 20.7872 11.4364 20.7855 11.5645 20.7838C11.5844 20.7835 11.6044 20.7833 11.6245 20.7833H12.5395C12.6895 20.7833 12.817 20.7458 12.922 20.6408C12.9498 20.613 12.9776 20.586 13.0051 20.5594C13.0592 20.5069 13.1123 20.4555 13.162 20.4008C13.305 20.2513 13.3016 20.0623 13.2981 19.873C13.2976 19.8439 13.297 19.8148 13.297 19.7858C13.2895 19.5308 13.2895 18.9008 13.2895 18.8483ZM14.362 16.5308H14.9845V15.4883H16.0045V17.2808H13.4245L13.402 17.2358V15.9608H14.362V16.5308Z" fill="currentColor"/>
  <path d="M13.4757 18.8482C13.4757 18.6157 13.1532 18.4057 13.0482 18.2032C12.9282 17.9782 12.8682 17.7457 12.7482 17.5207C12.6657 17.3632 12.6544 17.1982 12.6544 17.0182C12.6544 16.7857 12.6544 15.5632 12.6544 15.5632C12.6544 15.5632 11.5417 15.5616 11.4282 15.5632C11.3146 15.5647 11.4282 16.5757 11.4282 16.8382C11.4282 17.0407 11.4357 17.2357 11.3457 17.4232C11.1657 17.7832 10.9707 18.1357 10.7982 18.4957C10.7007 18.6982 10.7157 18.9007 10.7157 19.1182C10.7157 19.3807 10.7157 20.0257 10.7157 20.0857C10.7232 20.2507 10.8132 20.3632 10.9182 20.4682C11.0007 20.5507 11.0832 20.6557 11.1882 20.7157C11.3232 20.7982 11.4657 20.7832 11.6157 20.7832C11.9232 20.7832 12.2232 20.7832 12.5307 20.7832C12.6807 20.7832 12.8082 20.7457 12.9132 20.6407C12.9957 20.5582 13.0782 20.4832 13.1532 20.4007C13.3182 20.2282 13.4757 20.0032 13.4757 19.7857C13.4757 19.5307 13.4757 18.9007 13.4757 18.8482Z" fill="currentColor" fill-opacity="0.14"/>
  <path fill-rule="evenodd" clip-rule="evenodd" d="M16.0048 17.2808V15.4883H14.9848V16.5308H14.3623V15.9608H13.4023V17.2358L13.4248 17.2808H16.0048Z" fill="currentColor" fill-opacity="0.14"/>
  <path d="M12.5616 15.563V13.5792C12.5616 13.4817 12.4791 13.3992 12.3816 13.4067H11.6091C11.5116 13.4067 11.4291 13.4817 11.4291 13.5792C11.4291 13.5792 11.4216 15.563 11.4291 15.563C11.4366 15.563 12.5616 15.563 12.5616 15.563Z" fill="currentColor" fill-opacity="0.46"/>
</svg>