<svg xmlns="http://www.w3.org/2000/svg" width="24" height="24" viewBox="0 0 24 24" fill="none" id="weapon_gunlance">
  <path d="M15.4796 8.31055H14.6562V9.92726H15.4796V8.31055Z" fill="currentColor"/>
  <path d="M18.8976 12.6211H18.0742V14.2378H18.8976V12.6211Z" fill="currentColor"/>
  <path d="M15.4796 12.6211H14.6562V14.2378H15.4796V12.6211Z" fill="currentColor"/>
  <path d="M18.8976 8.31055H18.0742V9.92726H18.8976V8.31055Z" fill="currentColor"/>
  <path d="M22.1692 9.1435L22.1137 6.80101L21.5049 6.704C21.4975 6.70252 20.6934 6.56995 20.0076 6.24557C19.5571 6.03228 19.1251 5.55238 18.9971 5.38575L18.7782 5.09766L14.7451 5.10802L14.5268 5.3976C14.4004 5.56349 13.9706 6.04487 13.5208 6.26038C12.8358 6.58847 12.0324 6.72399 12.0243 6.72547L11.4177 6.8262L11.3711 9.1672L12.9431 11.2423L12.9645 17.2774L14.8694 20.0672L18.7123 20.0591L20.6053 17.2611V11.226L22.1684 9.14424L22.1692 9.1435ZM18.3203 19.3185H17.8032L16.7254 19.3222H16.4102L15.777 19.3244H15.2599L13.7035 17.0471L13.6835 11.506L13.6821 10.992L12.116 8.92429L12.1449 7.4557C12.1449 7.4557 13.0451 7.30832 13.8404 6.92766C14.5601 6.58328 15.1179 5.84343 15.1179 5.84343L16.6625 5.82195L16.7638 5.82047H16.8016L17.0945 5.82344H17.1123L18.4105 5.83603C18.4105 5.83603 18.9712 6.57365 19.6925 6.91507C20.4892 7.29203 21.3902 7.4357 21.3902 7.4357L21.425 8.90429L19.8678 10.9787V11.4349V11.4601V17.0338L18.3217 19.3192L18.3203 19.3185Z" fill="currentColor"/>
  <path d="M11.6576 14.3405V10.4028H9.90071V6.21921H10.7714V3.88561L6.64731 3.86635H6.64361V2.64586L5.94899 1.79492L3.42201 3.89153L3.44273 8.79795H5.9046V10.4028H3.3399V14.3405H4.83567L2.74219 17.2925H5.96748V19.0877H5.11233V21.425H8.71415L9.94805 20.2393V17.2933H12.836L11.0414 14.3413H11.6583L11.6576 14.3405ZM6.64435 4.60695L10.0316 4.6225V5.47862H6.64435V4.60695ZM6.64435 6.23476L9.16096 6.21921V10.4028H6.64435V6.23476ZM4.17877 8.05736L4.16324 4.23813L5.84764 2.84064L5.9046 2.91025V8.05736H4.17951H4.17877ZM4.07965 13.5999V11.1434H10.9179V13.5999H4.07965ZM9.2083 19.9231L8.41678 20.6837H5.85208V19.8276H6.70722V17.2918H9.2083V19.9224V19.9231ZM11.52 16.5519H4.17508L5.72632 14.365H10.1899L11.5193 16.5519H11.52Z" fill="currentColor"/>
  <path fill-rule="evenodd" clip-rule="evenodd" d="M10.0318 5.4791V4.62297L6.64453 4.60742V5.4791H10.0318Z" fill="currentColor" fill-opacity="0.2"/>
  <path fill-rule="evenodd" clip-rule="evenodd" d="M6.64453 10.4023H9.16115V6.21875L6.64453 6.2343V10.4023Z" fill="currentColor" fill-opacity="0.2"/>
  <path fill-rule="evenodd" clip-rule="evenodd" d="M5.10066 12.6924V11.1445H4.08203V13.6011H10.9202V11.1445H9.94969V12.6924H8.50423V11.1445H6.48251V12.6924H5.10066Z" fill="currentColor" fill-opacity="0.2"/>
  <path fill-rule="evenodd" clip-rule="evenodd" d="M9.21096 19.9235V17.293H6.70987V19.8288H5.85547V20.6841H8.41943L9.21096 19.9235Z" fill="currentColor" fill-opacity="0.2"/>
  <path d="M19.9204 10.9035L19.8649 10.9775L21.4221 8.90312L21.3873 7.43453C21.3873 7.43453 20.4863 7.29086 19.6896 6.9139C18.9691 6.57248 18.4076 5.83486 18.4076 5.83486L17.1094 5.82227L17.1205 10.9086L19.9204 10.9027V10.9035ZM18.0733 8.31139H18.8966V9.9281H18.0733V8.31139Z" fill="currentColor" fill-opacity="0.2"/>
  <path d="M13.6836 11.6466V11.5059L13.7028 17.047L15.2593 19.3258H15.7763L16.4096 19.3235L16.3948 11.6414L13.6836 11.6473V11.6466ZM15.4782 14.2394H14.6549V12.6227H15.4782V14.2394Z" fill="currentColor" fill-opacity="0.2"/>
  <path d="M6.4795 11.1445H5.09766V12.6924H6.4795V11.1445Z" fill="currentColor" fill-opacity="0.6"/>
  <path d="M9.94937 11.1445H8.50391V12.6924H9.94937V11.1445Z" fill="currentColor" fill-opacity="0.6"/>
  <path fill-rule="evenodd" clip-rule="evenodd" d="M17.1208 10.9104L17.1104 5.82402L16.762 5.82031L16.3818 5.8255L16.3929 10.9437L13.6484 10.9496L13.681 10.9919L13.6832 11.6465L16.3944 11.6406L16.4092 19.3228L17.1371 19.3213L17.1223 11.671L19.8653 11.6651L19.8645 10.9785L19.9207 10.9045L17.1208 10.9104Z" fill="currentColor" fill-opacity="0.4"/>
</svg>