<svg xmlns="http://www.w3.org/2000/svg" width="24" height="24" viewBox="0 0 24 24" fill="none" id="weapon_hunting_horn">
  <path d="M5.04632 10.2763C5.41965 10.4233 5.8337 10.5 6.27491 10.5C6.71611 10.5 7.23877 10.4105 7.68676 10.2507C8.20263 10.059 8.45378 9.76499 8.57595 9.55408C8.71171 9.3176 8.72529 9.11308 8.72529 9.01721V8.97886C8.75244 8.97886 8.78638 8.97886 8.81353 8.97886C9.09182 8.97886 9.30225 8.87021 9.94708 8.26303C10.1304 8.09046 10.5783 7.65585 10.748 7.38102C11.1417 6.76106 10.8974 6.26254 10.5308 6.00688H10.524C10.524 6.00049 10.5173 5.9941 10.5173 5.9941L7.84967 4.23009C7.63246 4.0767 7.42204 4 7.2184 4C6.81114 4 6.4989 4.30039 6.4989 4.68387C6.4989 4.68387 6.4989 6.22419 6.4989 7.20206C6.28848 7.14454 6.07806 7.11259 5.888 7.11259C5.23638 7.11259 4.68657 7.38741 4.24537 7.92429L4.23179 7.93707C4.05531 8.14798 3.85168 8.65929 4.00101 9.20256C4.08925 9.53491 4.34718 9.98869 5.04632 10.2635V10.2763ZM4.62548 8.81268C4.62548 8.5826 4.72051 8.39725 4.76802 8.34612C4.82233 8.27581 4.95808 8.10325 5.18208 7.96264C5.20923 7.94985 5.23638 7.93068 5.26353 7.9179C5.31783 7.88594 5.37892 7.86037 5.44001 7.8412C5.56898 7.79646 5.71831 7.7709 5.888 7.7709C6.0577 7.7709 5.92194 7.7709 5.94231 7.7709C5.94231 7.7709 5.94909 7.7709 5.95588 7.7709C5.96946 7.7709 5.98303 7.7709 5.99661 7.7709C6.0034 7.7709 6.01018 7.7709 6.01697 7.7709C6.02376 7.7709 6.03734 7.7709 6.04412 7.7709C6.05091 7.7709 6.06449 7.7709 6.07127 7.7709C6.07806 7.7709 6.09164 7.7709 6.09842 7.7709C6.112 7.7709 6.11879 7.7709 6.13236 7.7709C6.13915 7.7709 6.14594 7.7709 6.15273 7.7709C6.1663 7.7709 6.17309 7.7709 6.18667 7.7709C6.19345 7.7709 6.20024 7.7709 6.21382 7.7709C6.22739 7.7709 6.23418 7.7709 6.24776 7.77729C6.25454 7.77729 6.26133 7.77729 6.26812 7.77729C6.28169 7.77729 6.28848 7.77729 6.30206 7.78368C6.30885 7.78368 6.31563 7.78368 6.32242 7.78368C6.336 7.78368 6.34957 7.79007 6.35636 7.79646C6.35636 7.79646 6.36994 7.79646 6.37672 7.79646C6.3903 7.79646 6.40387 7.80924 6.41745 7.80924C6.41745 7.80924 6.41745 7.80924 6.42424 7.80924C6.43781 7.80924 6.45139 7.82203 6.47175 7.82842C6.47175 7.82842 6.47175 7.82842 6.47854 7.82842C6.49211 7.82842 6.51248 7.8412 6.52605 7.84759C6.53963 7.85398 6.55999 7.86037 6.57357 7.86677C6.58714 7.87316 6.60751 7.87955 6.62108 7.89233C6.63466 7.89872 6.65502 7.9115 6.6686 7.9179C6.94689 8.0649 7.15731 8.26303 7.15731 8.46755C7.15731 8.12881 7.15731 5.00983 7.15731 5.00983V4.63913C7.15731 4.60718 7.17768 4.5944 7.19804 4.5944C7.2184 4.5944 7.21162 4.5944 7.2184 4.5944C7.22519 4.5944 7.23198 4.5944 7.23877 4.5944C7.28628 4.60718 7.34737 4.64553 7.38131 4.6647C7.40846 4.67748 7.42204 4.69027 7.42204 4.69027L10.0964 6.45428C10.1643 6.49902 10.239 6.57571 10.239 6.69715C10.239 6.72271 10.239 6.74828 10.2322 6.78024C10.2254 6.81219 10.2118 6.84415 10.1982 6.87611C10.1847 6.90806 10.1643 6.94641 10.1371 6.98476C10.0828 7.07424 9.95387 7.22124 9.79775 7.38102C9.76381 7.41937 9.72987 7.45133 9.68915 7.48968C9.60091 7.57915 9.49909 7.67502 9.40406 7.7645C9.36333 7.80285 9.3294 7.83481 9.28867 7.86677C9.25473 7.89872 9.214 7.93068 9.18007 7.96264C9.14613 7.99459 9.11219 8.02655 9.07825 8.05211C8.91534 8.19272 8.79316 8.27581 8.7728 8.25664C8.73207 8.22468 8.86104 7.99459 8.97643 7.73255C8.97643 7.71976 8.99001 7.70698 8.99001 7.6942C9.00358 7.66863 9.01037 7.64307 9.02395 7.62389C9.03073 7.60472 9.04431 7.57915 9.0511 7.55998C9.07146 7.50885 9.09182 7.45772 9.1054 7.40659C9.1054 7.4002 9.1054 7.38741 9.11219 7.38102C9.13934 7.27876 9.1597 7.18289 9.15291 7.0998C9.13255 6.99115 8.86104 6.79941 8.62347 6.65241C8.42662 6.53097 8.25014 6.44149 8.25014 6.44149C8.25014 6.44149 8.1619 6.42232 8.09402 6.4351C8.0533 6.44149 8.01257 6.46067 8.01257 6.5118V8.94051C8.01257 8.94051 8.02615 9.34956 7.40846 9.57325C7.3338 9.59882 7.25234 9.63078 7.1641 9.64995C7.12338 9.66273 7.08265 9.67552 7.03514 9.68191C6.7772 9.74582 6.50569 9.77778 6.22739 9.77778C6.08485 9.77778 5.94909 9.76499 5.81334 9.74582C5.76583 9.73943 5.7251 9.73304 5.67758 9.72026C5.54183 9.69469 5.40607 9.65634 5.27711 9.60521C5.09384 9.53491 4.95129 9.44543 4.85627 9.34956C4.82233 9.3176 4.79518 9.28564 4.76802 9.25369C4.7273 9.20256 4.70015 9.15143 4.673 9.1003C4.66621 9.08112 4.65942 9.06834 4.65263 9.04916C4.61191 8.9469 4.59833 8.83825 4.59833 8.74238L4.62548 8.81268Z" fill="currentColor"/>
  <path d="M19.6712 11.6928H18.9271L18.9609 7.0138L19.36 6.61159L19.6577 5.89432V4.5H18.1762L17.5132 4.83517L16.8705 4.52681H15.186V5.8608L15.4837 6.57808L16.0655 7.22161L16.0519 11.4917H7.08821L4.30777 14.2133C4.09129 14.4278 3.94922 14.7697 3.94922 15.0714V16.3383C3.94922 16.64 4.09129 16.9819 4.30777 17.1964L5.11281 17.9941C4.75426 18.0477 4.48366 18.3494 4.48366 18.7248V19.5761C4.48366 19.985 4.81515 20.3135 5.22105 20.3135H6.12081C6.47935 20.3135 6.78378 20.0588 6.84467 19.7169L7.18969 20.0588C7.40617 20.2733 7.75119 20.414 8.05561 20.414H8.88095V20.7358C8.88095 21.1581 9.23274 21.5 9.65894 21.5H9.74012C9.97013 21.5 10.2137 21.4062 10.3828 21.252L11.2826 20.414H13.6639C13.9683 20.414 14.3201 20.2666 14.5365 20.0521L15.2469 19.3348C15.3822 19.4487 15.5581 19.5158 15.7475 19.5158H17.5402C17.9732 19.5158 18.3318 19.1672 18.3318 18.7315V16.6668L18.9203 16.03V14.5619L20.1786 13.3486C20.3477 13.181 20.4492 12.933 20.4492 12.6983V12.4771C20.4492 12.0548 20.0974 11.7062 19.6712 11.7062V11.6928ZM15.9707 6.10213C15.9369 6.06861 15.9099 6.02169 15.8896 5.97476C15.8896 5.95465 15.876 5.94125 15.876 5.92114C15.876 5.90773 15.876 5.90103 15.876 5.88762C15.876 5.87421 15.876 5.86751 15.876 5.8541V5.33793C15.876 5.31782 15.876 5.29771 15.8896 5.28431C15.8896 5.2776 15.8963 5.2709 15.9031 5.25749C15.9302 5.21727 15.9707 5.19716 16.0249 5.19716H16.8908C16.972 5.19716 17.0329 5.2642 17.0329 5.33793V5.58596C17.0329 5.63289 17.0599 5.67981 17.0937 5.70662C17.1005 5.70662 17.1073 5.71333 17.1208 5.72003C17.1411 5.72673 17.1546 5.73344 17.1749 5.73344H17.9056C17.9258 5.73344 17.9461 5.73344 17.9597 5.72003C17.9664 5.72003 17.9732 5.71333 17.9867 5.70662C18.0273 5.67981 18.0476 5.63959 18.0476 5.58596V5.31112C18.0476 5.25079 18.0814 5.20386 18.1356 5.17705C18.1423 5.17705 18.1559 5.17705 18.1626 5.17035C18.1694 5.17035 18.1829 5.17035 18.1897 5.17035H18.8459C18.8662 5.17035 18.8865 5.17035 18.9 5.18375C18.9271 5.19716 18.9474 5.21057 18.9609 5.23738C18.9677 5.24409 18.9744 5.25749 18.9744 5.2709C18.9744 5.28431 18.9812 5.30442 18.9812 5.31782V5.89432C18.9812 5.96136 18.9474 6.0418 18.9068 6.10213C18.9 6.11554 18.8865 6.12894 18.8797 6.13565L18.5212 6.49093L18.1626 6.84621C18.1626 6.84621 18.1491 6.85962 18.1423 6.86633C18.1153 6.88644 18.0747 6.91325 18.0341 6.92666C17.9935 6.94006 17.9529 6.95347 17.9123 6.95347H16.9652C16.9246 6.95347 16.8773 6.94006 16.8299 6.91995C16.8164 6.91995 16.7961 6.90655 16.7826 6.89984C16.7555 6.88644 16.7352 6.87303 16.7149 6.85292L15.964 6.10213H15.9707ZM18.2776 7.85173V9.29298C18.2776 9.35331 18.2506 9.41364 18.21 9.45386C18.1694 9.49409 18.1085 9.5209 18.0476 9.5209H16.9787C16.8502 9.5209 16.7487 9.42035 16.7487 9.29298V7.85173C16.7487 7.7914 16.7758 7.73107 16.8164 7.69085C16.857 7.65063 16.9179 7.62382 16.9787 7.62382H18.0476C18.0814 7.62382 18.1085 7.62382 18.1356 7.64393C18.1491 7.64393 18.1626 7.65733 18.1762 7.66404C18.237 7.70426 18.2776 7.778 18.2776 7.85173ZM6.18169 19.5694C6.18169 19.6029 6.15463 19.6364 6.12081 19.6364H5.22105C5.20076 19.6364 5.18723 19.6297 5.1737 19.6163C5.16017 19.6029 5.1534 19.5895 5.1534 19.5694V18.7181C5.1534 18.6845 5.18046 18.651 5.21429 18.651H5.35635C5.39018 18.651 5.43753 18.6711 5.46459 18.6979L6.13434 19.4018C6.1411 19.4085 6.14787 19.4219 6.15463 19.4353C6.16816 19.4621 6.17493 19.489 6.17493 19.5158V19.5694H6.18169ZM11.0796 19.5828C11.0796 19.5962 11.0796 19.6096 11.0796 19.623C11.0796 19.6364 11.0796 19.6431 11.0661 19.6565C11.0661 19.6565 11.0661 19.6565 11.0661 19.6632C11.0661 19.6767 11.0525 19.6968 11.0458 19.7102C11.039 19.7236 11.0255 19.737 11.0187 19.7437L9.92954 20.7626C9.90924 20.7827 9.88218 20.7961 9.84836 20.8095C9.83483 20.8095 9.81453 20.8229 9.801 20.8229C9.78747 20.8229 9.76718 20.8229 9.75365 20.8229H9.67247C9.6657 20.8229 9.65894 20.8229 9.65217 20.8229C9.63188 20.8229 9.61158 20.8095 9.59805 20.7961C9.59805 20.7961 9.58452 20.7827 9.58452 20.776C9.58452 20.776 9.58452 20.7693 9.57776 20.7626C9.57776 20.7559 9.57776 20.7425 9.57776 20.7291V19.3616C9.57776 19.3549 9.57776 19.3482 9.57776 19.3415C9.57776 19.3415 9.57776 19.3348 9.57776 19.3281C9.57776 19.3281 9.57775 19.3214 9.58452 19.3147C9.58452 19.3147 9.59805 19.308 9.60482 19.3013C9.61158 19.3013 9.61835 19.2946 9.63188 19.2879C9.63864 19.2879 9.65217 19.2879 9.65894 19.2879H10.9781C10.9849 19.2879 10.9917 19.2879 10.9984 19.2879C10.9984 19.2879 11.012 19.2879 11.0187 19.2879C11.0255 19.2879 11.0322 19.2946 11.039 19.3013C11.039 19.3013 11.0525 19.3147 11.0593 19.3214C11.0593 19.3281 11.0661 19.3348 11.0728 19.3415C11.0728 19.3482 11.0728 19.3549 11.0728 19.3683V19.5828H11.0796ZM17.6552 18.7248C17.6552 18.7583 17.6417 18.7851 17.6214 18.8052C17.6214 18.8052 17.6079 18.8119 17.6079 18.8186C17.5944 18.8253 17.5808 18.832 17.5673 18.8387C17.5605 18.8387 17.5538 18.8387 17.547 18.8387H15.7543C15.734 18.8387 15.7069 18.832 15.6934 18.8186C15.6934 18.8186 15.6798 18.8119 15.6798 18.8052C15.6596 18.7851 15.646 18.7583 15.646 18.7248V17.9807V16.821C15.646 16.8076 15.646 16.8009 15.646 16.7942C15.646 16.7942 15.646 16.7942 15.646 16.7875C15.646 16.7808 15.6528 16.7673 15.6596 16.7606C15.6596 16.7539 15.6731 16.7472 15.6798 16.7405C15.6866 16.7405 15.6934 16.7271 15.7069 16.7271C15.7069 16.7271 15.7204 16.7271 15.7272 16.7271C15.734 16.7271 15.7407 16.7271 15.7475 16.7271H17.5402C17.547 16.7271 17.5538 16.7271 17.5605 16.7271C17.5673 16.7271 17.5808 16.7271 17.5876 16.7405C17.6011 16.7472 17.6147 16.7606 17.6282 16.7741C17.6417 16.7942 17.6485 16.8143 17.6485 16.8411V18.7449L17.6552 18.7248ZM18.21 15.2792C18.1829 15.3663 18.1356 15.4468 18.0814 15.5004L17.5538 16.03C17.5538 16.03 17.547 16.03 17.5402 16.03H15.7475C15.3145 16.03 14.956 16.3785 14.956 16.8143V18.6577L14.5704 19.0465L14.0495 19.5761C14.0427 19.5828 14.0292 19.5962 14.0156 19.6029C14.0156 19.6029 14.0089 19.6029 14.0021 19.6096C13.9953 19.6163 13.9818 19.623 13.975 19.6297C13.975 19.6297 13.9683 19.6297 13.9615 19.6364C13.9006 19.67 13.833 19.7035 13.7653 19.7169C13.7653 19.7169 13.7586 19.7169 13.7518 19.7169C13.7383 19.7169 13.7315 19.7169 13.718 19.7169C13.718 19.7169 13.7112 19.7169 13.7044 19.7169C13.6909 19.7169 13.6774 19.7169 13.6639 19.7169H11.7426C11.7493 19.6632 11.7561 19.6096 11.7561 19.5627V19.3482C11.7561 18.9259 11.4043 18.584 10.9781 18.584H9.65894C9.22597 18.584 8.88095 18.9259 8.88095 19.3482V19.7236H8.05561C8.03532 19.7236 8.01502 19.7236 7.99473 19.7236H7.9812C7.9609 19.7236 7.94061 19.7169 7.92031 19.7102C7.87296 19.6968 7.81884 19.67 7.77825 19.6498C7.75795 19.6364 7.74442 19.6297 7.73089 19.6163C7.71736 19.6029 7.69707 19.5895 7.6903 19.5828L4.80162 16.7204C4.78132 16.7003 4.76103 16.6735 4.74073 16.64C4.72044 16.6132 4.70691 16.5797 4.69338 16.5461C4.67985 16.5126 4.66632 16.4791 4.65955 16.4456C4.65279 16.4054 4.64602 16.3651 4.64602 16.3316V15.0647C4.64602 15.0513 4.64602 15.0312 4.64602 15.0177C4.64602 15.0043 4.64602 14.9842 4.65279 14.9708V14.9574C4.65279 14.944 4.65279 14.9373 4.65955 14.9239C4.65955 14.9239 4.65955 14.9105 4.65955 14.9038C4.65955 14.8904 4.66632 14.8837 4.67308 14.8703C4.67308 14.8703 4.67308 14.8569 4.67985 14.8502C4.67985 14.8435 4.68661 14.83 4.69338 14.8233C4.69338 14.8233 4.69338 14.8099 4.70014 14.8032C4.70014 14.7965 4.71367 14.7831 4.71367 14.7764C4.71367 14.7764 4.71367 14.763 4.7272 14.763C4.7272 14.7563 4.74073 14.7429 4.7475 14.7362C4.7475 14.7362 4.7475 14.7295 4.75426 14.7228C4.76103 14.7094 4.77456 14.696 4.78809 14.6893L6.37788 13.114L7.16939 12.3297C7.18292 12.3162 7.19645 12.3028 7.20998 12.2961C7.20998 12.2961 7.22351 12.2894 7.22351 12.2827C7.23704 12.276 7.24381 12.2693 7.25734 12.2626C7.25734 12.2626 7.27087 12.2559 7.27763 12.2492C7.29116 12.2425 7.30469 12.2358 7.31822 12.2291C7.31822 12.2291 7.33175 12.2291 7.33852 12.2224C7.35881 12.2157 7.37911 12.209 7.3994 12.2023C7.3994 12.2023 7.41293 12.2023 7.4197 12.2023C7.43323 12.2023 7.43999 12.1956 7.45352 12.1956C7.46705 12.1956 7.48735 12.1956 7.50088 12.1889C7.52117 12.1889 7.5347 12.1889 7.555 12.1889H8.8336H15.9302V13.4089C15.9302 13.4089 15.9302 13.4156 15.9302 13.4223C15.9302 13.4357 15.9302 13.4558 15.9302 13.4692C15.9302 13.4894 15.9166 13.5095 15.9099 13.5296C15.9099 13.543 15.8963 13.5564 15.8896 13.5698C15.8896 13.5832 15.876 13.5899 15.8693 13.6033C15.8625 13.6167 15.8557 13.6234 15.8422 13.6301L12.6356 16.8076C12.622 16.821 12.6085 16.8344 12.5882 16.8478C12.5747 16.8545 12.5611 16.8612 12.5476 16.8679C12.5476 16.8679 12.5476 16.8679 12.5341 16.8679C12.507 16.8813 12.48 16.888 12.4461 16.8947C12.4461 16.8947 12.4394 16.8947 12.4326 16.8947C12.4191 16.8947 12.4056 16.8947 12.392 16.8947H8.63065C8.61035 16.8947 8.59682 16.8947 8.57653 16.8947C8.57653 16.8947 8.56976 16.8947 8.56299 16.8947C8.54947 16.8947 8.53593 16.888 8.5224 16.8813C8.50211 16.8746 8.48858 16.8679 8.46828 16.8545C8.45475 16.8545 8.44799 16.8411 8.43446 16.8344C8.42093 16.8277 8.41416 16.821 8.4074 16.8076L8.39387 16.7942L7.35205 15.7752C7.35205 15.7752 7.33852 15.7618 7.33852 15.7551C7.33852 15.7484 7.33175 15.7417 7.32499 15.735C7.32499 15.7216 7.31822 15.7082 7.31822 15.6948C7.31822 15.6948 7.31822 15.6881 7.31822 15.6814C7.31822 15.6546 7.32499 15.6278 7.34528 15.6076C7.34528 15.6076 7.35205 15.5942 7.35881 15.5942L7.73089 15.2256L8.85389 14.1128C8.85389 14.1128 8.86742 14.0994 8.87419 14.0994C8.87419 14.0994 8.88095 14.0994 8.88772 14.0927C8.88772 14.0927 8.89448 14.0927 8.90125 14.0927C8.90125 14.0927 8.90801 14.0927 8.91478 14.0927C8.91478 14.0927 8.91478 14.0927 8.92154 14.0927C8.92154 14.0927 8.92831 14.0927 8.93507 14.0927H8.9486C8.9486 14.0927 8.95537 14.0927 8.96213 14.0927H8.97566H8.98243C8.98243 14.0927 8.98919 14.0927 8.99596 14.0927C8.99596 14.0927 8.99596 14.0927 9.00272 14.0927C9.00272 14.0927 9.00272 14.0927 9.00949 14.0994C9.00949 14.0994 9.01625 14.0994 9.02302 14.1061L9.46275 14.5016L10.234 15.1987C10.2407 15.2054 10.2475 15.2121 10.2543 15.2256C10.2543 15.2323 10.261 15.239 10.261 15.2457V15.2591C10.261 15.2591 10.261 15.2591 10.2543 15.2658C10.2543 15.2658 10.2475 15.2658 10.2407 15.2658C10.2407 15.2658 10.2407 15.2658 10.234 15.2658C10.2272 15.2658 10.2137 15.2658 10.2069 15.2658H8.56299C8.54947 15.2658 8.5427 15.2658 8.53593 15.2658C8.53593 15.2658 8.53593 15.2658 8.52917 15.2658H8.51564C8.51564 15.2658 8.51564 15.2658 8.50887 15.2725C8.50887 15.2792 8.50887 15.2859 8.50887 15.2993C8.50887 15.2993 8.50887 15.2993 8.50887 15.306C8.50887 15.306 8.50887 15.3194 8.51564 15.3261C8.5224 15.3328 8.5224 15.3395 8.52917 15.3462L8.82683 15.6479L9.1245 15.9495C9.14479 15.9696 9.17862 15.9897 9.21244 16.0099C9.21244 16.0099 9.21244 16.0099 9.21921 16.0099C9.24627 16.0233 9.27333 16.03 9.30715 16.0367C9.30715 16.0367 9.30715 16.0367 9.31392 16.0367C9.32745 16.0367 9.34098 16.0367 9.35451 16.0367H11.8779C11.9523 16.0367 12.0132 15.9763 12.0132 15.9026V15.8356V15.7953C12.0132 15.7819 12.0132 15.7618 12.0132 15.7417C12.0064 15.7082 11.9929 15.668 11.9726 15.6345C11.9726 15.6345 11.9726 15.6345 11.9726 15.6278C11.9658 15.6144 11.9591 15.6009 11.9455 15.5942C11.9455 15.5942 11.9455 15.5875 11.9388 15.5808C11.9388 15.5808 11.932 15.5741 11.9252 15.5674L9.02302 12.9598C8.99596 12.9397 8.96213 12.9263 8.92831 12.9263C8.92831 12.9263 8.92154 12.9263 8.91478 12.9263C8.91478 12.9263 8.90801 12.9263 8.90125 12.9263C8.87419 12.9263 8.84713 12.9464 8.82683 12.9665L6.21552 15.554C6.20875 15.5607 6.20199 15.5741 6.19522 15.5808C6.19522 15.5875 6.18846 15.6009 6.18169 15.6076C6.18169 15.6278 6.18169 15.6479 6.18169 15.6613C6.18169 15.6747 6.18169 15.6814 6.19522 15.6948C6.19522 15.6948 6.19522 15.6948 6.19522 15.7015C6.19522 15.7149 6.20875 15.7216 6.21552 15.7283L7.15586 16.64L8.08944 17.545C8.14356 17.5986 8.24504 17.6388 8.32622 17.6388H12.7506C12.7641 17.6388 12.7776 17.6388 12.7912 17.6388C12.7912 17.6388 12.7979 17.6388 12.8047 17.6388C12.8318 17.6388 12.8588 17.6254 12.8926 17.612C12.8926 17.612 12.8994 17.612 12.9062 17.612C12.9332 17.5986 12.9603 17.5785 12.9873 17.5651C12.9873 17.5651 12.9873 17.5651 12.9941 17.5584L14.2186 16.345L16.6675 13.9184C16.6878 13.8983 16.7014 13.8782 16.7149 13.8513C16.7217 13.8379 16.7284 13.8178 16.7352 13.8044C16.742 13.7843 16.7487 13.7642 16.7555 13.7441C16.7555 13.724 16.7555 13.7106 16.7555 13.6905V12.142V11.9945V11.6392V10.4192C16.7555 10.3588 16.7826 10.2985 16.8231 10.2583C16.8637 10.2181 16.9246 10.1912 16.9855 10.1912H18.0409C18.1694 10.1912 18.2709 10.2918 18.2709 10.4192V11.6861H18.0206C17.5944 11.6861 17.2426 12.0347 17.2426 12.457V14.3474C17.2426 14.8502 17.5538 15.2121 17.98 15.2121C18.4062 15.2121 18.1626 15.192 18.2438 15.1585V15.2725L18.21 15.2792ZM19.7727 12.6849C19.7727 12.7185 19.7592 12.7654 19.7389 12.7989C19.7186 12.8324 19.7118 12.8391 19.6983 12.8592L18.3994 14.1195L17.9597 14.5485C17.9597 14.5485 17.9529 14.5485 17.9461 14.5485C17.9123 14.5418 17.8853 14.4077 17.8853 14.3541V12.4637C17.8853 12.4369 17.8988 12.4101 17.9123 12.39C17.9326 12.3699 17.9597 12.3632 17.9867 12.3632H19.6712C19.7118 12.3632 19.7457 12.3833 19.7592 12.4168C19.7659 12.4302 19.7727 12.4436 19.7727 12.4637V12.6849Z" fill="currentColor"/>
  <path d="M10.8956 19.5C10.8956 19.5 10.8823 19.5 10.8756 19.5C10.8756 19.5 10.8622 19.5 10.8555 19.5H9.54967C9.52958 19.5 9.50949 19.5 9.49609 19.5129C9.46931 19.5323 9.44922 19.5582 9.44922 19.5905V19.9526V20.9095C9.44922 20.9612 9.49609 21 9.54967 21H9.63002C9.68359 21 9.76395 20.9677 9.80413 20.9353L10.8823 19.9526C10.9023 19.9332 10.9224 19.9073 10.9358 19.875C10.9358 19.875 10.9358 19.875 10.9358 19.8685C10.9358 19.8556 10.9425 19.8491 10.9492 19.8362C10.9492 19.8233 10.9492 19.8103 10.9492 19.7974V19.5905C10.9492 19.5517 10.9224 19.5194 10.889 19.5065L10.8956 19.5Z" fill="currentColor" fill-opacity="0.2"/>
  <path d="M16.7727 6.91477C16.825 6.96023 16.9361 7 17.008 7H17.9231C18.0015 7 18.1061 6.96023 18.1584 6.91477L18.8512 6.3125C18.9035 6.26705 18.9492 6.17045 18.9492 6.10795V5.61932C18.9492 5.55114 18.8839 5.5 18.812 5.5H18.178C18.0995 5.5 18.0407 5.55682 18.0407 5.61932V5.85227C18.0407 5.92045 17.9754 5.97159 17.9035 5.97159H17.1976C17.1192 5.97159 17.0603 5.91477 17.0603 5.85227V5.64205C17.0603 5.57386 16.995 5.52273 16.9231 5.52273H16.0865C16.008 5.52273 15.9492 5.57955 15.9492 5.64205V6.07955C15.9492 6.14773 15.995 6.23864 16.0473 6.28409L16.7727 6.92045V6.91477Z" fill="currentColor" fill-opacity="0.2"/>
  <path d="M17.3288 17.0063H15.5562C15.5429 17.0063 15.5295 17.0063 15.5161 17.0126C15.476 17.0314 15.4492 17.0629 15.4492 17.1069V18.195V18.8931C15.4492 18.9497 15.5027 19 15.5629 19H17.3355C17.3957 19 17.4492 18.9497 17.4492 18.8931V17.1069C17.4492 17.0503 17.4024 17 17.3355 17L17.3288 17.0063Z" fill="currentColor" fill-opacity="0.2"/>
  <path d="M5.75385 18.5476C5.72736 18.5204 5.68101 18.5 5.64789 18.5H5.50882C5.47571 18.5 5.44922 18.5272 5.44922 18.568V19.432C5.44922 19.466 5.47571 19.5 5.50882 19.5H6.38962C6.42273 19.5 6.44922 19.4728 6.44922 19.432V19.3776C6.44922 19.3435 6.42935 19.2891 6.40286 19.2619L5.74723 18.5476H5.75385Z" fill="currentColor" fill-opacity="0.2"/>
  <path d="M19.8349 12.5H18.0564C17.9992 12.5 17.9492 12.543 17.9492 12.5921V14.3227C17.9492 14.3718 17.9849 14.5314 18.0278 14.4945L19.8706 12.9541C19.9135 12.9173 19.9492 12.8498 19.9492 12.7946V12.5921C19.9492 12.543 19.8992 12.5 19.8421 12.5H19.8349Z" fill="currentColor" fill-opacity="0.2"/>
</svg>