<svg xmlns="http://www.w3.org/2000/svg" width="24" height="24" viewBox="0 0 24 24" fill="none" id="weapon_dual_blades">
<path fill-rule="evenodd" clip-rule="evenodd" d="M20.5877 16.9206C20.5652 16.6656 20.5127 16.4331 20.3927 16.1106L20.3177 15.9231L20.1602 15.7956C19.6502 15.3906 18.9452 14.9706 18.2177 14.5656L18.3152 14.3856C18.7427 13.5756 19.0952 12.6831 19.2827 12.2106C19.3277 12.0906 19.3727 11.9856 19.3952 11.9331L19.4102 11.9031L19.4177 11.8731C19.4402 11.8131 19.4627 11.7381 19.4927 11.6556C19.6802 11.1306 20.0327 10.1556 20.2502 8.37813L20.2577 8.31063V8.24312C20.2502 8.13062 20.2577 8.00313 20.2577 7.86063C20.2727 7.02063 20.3027 5.74563 18.6452 4.14813C17.8352 3.38313 16.1327 2.70813 14.7602 2.41563C14.6627 2.39313 12.0977 1.89062 12.0977 1.89062C12.0977 1.89062 13.9502 3.36813 14.0777 3.46563L14.1002 3.48063C14.4827 3.75813 15.4802 4.71063 15.9227 5.41563C15.9452 5.46063 15.9677 5.51313 15.9977 5.55813C16.3052 6.15813 16.5077 6.55562 16.4552 7.64313C16.4102 7.84563 16.3652 8.06313 16.3277 8.29563C16.2002 8.98563 16.0352 9.83313 15.7052 10.6656C15.5702 10.9581 15.4352 11.2356 15.3077 11.5056C15.0827 11.9706 14.8727 12.4056 14.6852 12.8631L14.6252 13.0056C14.2727 12.9006 13.9277 12.8106 13.6277 12.7656L13.4102 12.7281L13.2077 12.8181C13.0652 12.8781 12.9977 12.9156 12.9227 12.9456C12.8777 12.9681 12.8327 12.9906 12.7577 13.0206L12.4427 13.1631L12.3452 13.4931C12.2327 13.8981 12.1202 14.3106 12.0452 14.6481C11.9927 14.3106 11.9027 13.9581 11.7527 13.4256L11.6552 13.0956L11.3402 12.9531C11.2652 12.9231 11.2202 12.9006 11.1752 12.8781C11.1002 12.8406 11.0327 12.8106 10.8902 12.7506L10.6502 12.6456L10.3952 12.7131C10.1252 12.7881 9.82516 12.8781 9.50266 12.9906L9.42016 12.7956C9.17266 12.1806 8.83516 11.4156 8.38516 10.4406C8.09266 9.59313 7.92016 8.75313 7.77766 8.08563C7.74016 7.89813 7.70266 7.71063 7.65766 7.54563C7.63516 6.39063 7.85266 5.91063 8.16016 5.36313C8.59516 4.65813 9.61516 3.76563 9.95266 3.51813C10.1102 3.40563 11.9552 1.89062 11.9552 1.89062C11.9552 1.89062 9.35266 2.34063 9.21766 2.37813C7.90516 2.67813 6.32266 3.31563 5.52016 4.06563C4.08766 5.23563 3.80266 6.98313 3.71266 7.56813L3.69766 7.67313L3.71266 7.77813C3.91516 9.39063 4.43266 10.8381 4.71016 11.6181C4.76266 11.7681 4.80766 11.8956 4.83766 11.9931L4.84516 12.0231L4.86016 12.0531C4.96516 12.2931 5.25016 13.0056 5.73766 14.2431L5.86516 14.5656C5.14516 14.9781 4.51516 15.4281 3.95266 15.8406L3.77266 15.9681L3.69016 16.1781C3.57016 16.4931 3.51016 16.7331 3.49516 16.9881L3.47266 17.2956L3.77266 17.6481C4.02766 17.9556 4.23016 18.1956 4.56016 18.4806C4.71766 18.6381 4.92766 18.7281 5.16016 18.7281C5.25766 18.7281 5.34016 18.7131 5.40016 18.6981C5.43016 18.6906 5.45266 18.6906 5.46016 18.6906H5.46766L5.79016 18.7281L6.03766 18.5181C6.24016 18.3456 6.66766 18.0906 7.12516 17.8281L7.20016 17.9556C7.44766 18.3606 7.65766 18.6906 7.82266 18.9456L7.58266 19.1406L7.56766 19.4781C7.55266 19.7781 7.56766 19.8981 7.60516 20.0481C7.61266 20.0706 7.61266 20.0856 7.61266 20.1456L7.62766 20.3931L7.77766 20.5806C8.07766 20.9556 8.34016 21.2031 8.72266 21.4731L8.99266 21.6681L9.31516 21.5931C9.43516 21.5631 9.54016 21.5631 9.67516 21.5631C9.84016 21.5631 10.0502 21.5631 10.2977 21.5031L10.3877 21.4806L10.4702 21.4356C10.6427 21.3456 10.7852 21.2256 10.9352 21.1056C11.0252 21.0306 11.1077 20.9631 11.1902 20.9106L11.4302 20.7456L11.4977 20.4606C11.5577 20.2206 11.6552 19.1331 11.6402 18.8931L11.6102 18.4656L11.2277 18.2706C10.9277 18.1206 10.7327 18.0531 10.5527 17.9856C10.5452 17.9856 10.5377 17.9781 10.5302 17.9781C10.4327 17.8131 10.2977 17.5956 10.1252 17.3181C9.96016 17.0481 9.78016 16.7631 9.68266 16.5831L9.65266 16.5306C10.2152 16.2756 10.5827 16.1181 11.1527 15.9456L11.3177 15.9006L11.4452 15.7881C11.4752 15.7656 11.4977 15.7431 11.5202 15.7206C11.6327 15.6156 11.7077 15.5556 11.8652 15.3756L11.9177 15.3156L11.9102 15.3681L12.1427 15.6306C12.3002 15.8106 12.3752 15.8781 12.4877 15.9756C12.5102 15.9981 12.5327 16.0131 12.5627 16.0431L12.6977 16.1631L12.8777 16.2081C13.3202 16.3281 13.7852 16.4481 14.3927 16.6506C14.1752 17.0031 13.7327 17.7381 13.3577 18.2256C13.2977 18.2481 13.2452 18.2781 13.2002 18.3006C13.1477 18.3306 13.0952 18.3531 12.9977 18.3906L12.5402 18.5556L12.5102 19.0431C12.5102 19.0806 12.4502 20.0181 12.5327 20.3556L12.5477 20.4156L12.5702 20.4756C12.6977 20.7756 12.9227 20.8956 13.5227 21.2031C13.6502 21.2706 13.8527 21.3756 13.9127 21.4131L14.1377 21.5931L14.4452 21.5631C14.7302 21.5406 14.9477 21.4806 15.1202 21.4356C15.2177 21.4056 15.3077 21.3831 15.3677 21.3831L15.7427 21.3456L15.9377 21.0306C15.9827 20.9556 16.0277 20.8956 16.0652 20.8356C16.1702 20.6856 16.2602 20.5356 16.3952 20.2581L16.5602 19.9056L16.3652 19.5681C16.3052 19.4706 16.2452 19.3731 16.1777 19.2831C16.3727 18.9006 16.5977 18.4806 16.8827 18.0381L16.9877 17.8806C17.0927 17.9406 17.2052 18.0081 17.3102 18.0681C17.6552 18.2706 17.9777 18.4581 18.2402 18.6081L18.4577 18.7281L18.7052 18.6981H18.7127C18.7202 18.6981 18.7427 18.7056 18.7727 18.7056C18.8327 18.7206 18.9152 18.7356 19.0127 18.7356C19.2452 18.7356 19.4627 18.6456 19.6127 18.4806C19.8677 18.2556 20.0252 18.0231 20.1677 17.8206C20.2502 17.7006 20.3252 17.5881 20.4302 17.4681L20.6252 17.2356L20.5877 16.9206ZM5.53516 11.7531C5.33266 11.1456 4.67266 9.52563 4.44016 7.68063C4.56016 6.91563 4.86016 5.54313 6.00016 4.62813C6.77266 3.90063 8.47516 3.08312 9.72016 2.88813C9.72016 2.93313 8.14516 3.92313 7.49266 4.98063C7.11016 5.65563 6.84766 6.27813 6.88516 7.63563C7.06516 8.41563 7.25266 9.53313 7.65766 10.7181C8.02516 11.5206 8.40766 12.3756 8.69266 13.0806C7.81516 13.2906 7.37266 13.5081 6.40516 13.9581C5.99266 12.8781 5.65516 12.0306 5.53516 11.7531ZM10.0052 18.5781C10.3352 18.7131 10.4927 18.7356 10.8902 18.9381C10.8977 19.0956 10.8152 20.1081 10.7702 20.2881C10.5227 20.4531 10.3127 20.6706 10.1177 20.7681C9.78016 20.8506 9.54016 20.7681 9.14266 20.8581C8.81266 20.6256 8.60266 20.4231 8.34766 20.1081C8.33266 19.7931 8.28766 19.9356 8.30266 19.5081C8.55766 19.2981 8.55766 19.2906 8.74516 19.0131C8.54266 18.7056 8.25766 18.2706 7.82266 17.5656C8.13016 17.3856 8.67016 17.1006 9.03016 16.9506C9.28516 17.3931 9.89266 18.3381 10.0052 18.5781ZM10.9427 15.2181C9.99766 15.5031 9.57016 15.7506 8.22766 16.3506C7.32766 16.8456 6.03766 17.5206 5.53516 17.9406C5.25766 17.9106 5.12266 18.0306 5.06266 17.9331C4.72516 17.6481 4.54516 17.4156 4.22266 17.0331C4.23766 16.8831 4.26016 16.7256 4.37266 16.4331C5.25766 15.7881 6.24016 15.1056 7.42516 14.5956C8.39266 14.1681 9.70516 13.6656 10.5677 13.4331C10.7852 13.5306 10.8152 13.5456 11.0102 13.6356C11.1602 14.1681 11.2427 14.5131 11.2952 14.8581C11.1302 15.0606 11.0927 15.0831 10.9427 15.2181ZM16.3727 10.9656C16.8602 9.74313 17.0027 8.52813 17.1827 7.74813C17.2652 6.30063 16.9352 5.79063 16.5677 5.04813C15.9152 3.98313 14.3402 2.99313 14.3402 2.95563C15.5852 3.15063 17.3552 3.96813 18.1277 4.69563C19.8152 6.32313 19.4627 7.41813 19.5077 8.28063C19.2602 10.2756 18.8477 11.1831 18.7052 11.6331C18.5852 11.9106 18.1727 13.0431 17.6477 14.0331C16.6802 13.5831 16.2452 13.3656 15.3602 13.1556C15.6452 12.4506 16.0052 11.7681 16.3727 10.9656ZM15.2927 19.3206C15.3077 19.4106 15.5627 19.7031 15.6977 19.9356C15.5477 20.2656 15.4577 20.3481 15.2852 20.6256C15.0152 20.6481 14.7677 20.7756 14.3627 20.8131C14.2127 20.6856 13.2902 20.2656 13.2452 20.1681C13.2002 19.9956 13.2377 19.2381 13.2452 19.0806C13.5452 18.9681 13.5602 18.9156 13.7927 18.8556C14.2052 18.3606 14.7302 17.5056 15.0302 17.0106C15.3902 17.1531 15.9227 17.4381 16.2377 17.6256C15.8252 18.2556 15.5327 18.8556 15.2927 19.3206ZM19.0577 17.9406C18.9977 18.0381 18.8702 17.9106 18.5852 17.9481C17.8802 17.5431 16.7327 16.8606 15.8327 16.3656C14.5277 15.8856 13.7702 15.6756 13.0502 15.4806C12.9002 15.3381 12.8627 15.3231 12.6902 15.1281C12.7427 14.7906 12.8852 14.2506 13.0352 13.7181C13.2302 13.6281 13.2602 13.6131 13.4777 13.5156C14.3552 13.6506 15.6902 14.1756 16.6577 14.6031C17.7827 15.1881 18.9602 15.8181 19.6727 16.3881C19.7852 16.6806 19.8152 16.8381 19.8227 16.9881C19.5152 17.3631 19.4027 17.6481 19.0577 17.9406Z" fill="currentColor"/>
<path fill-rule="evenodd" clip-rule="evenodd" d="M9.03172 16.9434C9.28672 17.3934 9.90172 18.3384 10.0067 18.5784C10.3367 18.7134 10.4942 18.7359 10.8917 18.9384C10.8992 19.0959 10.8167 20.1084 10.7717 20.2884C10.5242 20.4534 10.3142 20.6709 10.1192 20.7684C9.78172 20.8509 9.54172 20.7684 9.14422 20.8584C8.81422 20.6259 8.60422 20.4234 8.34922 20.1084C8.33422 19.7934 8.28922 19.9359 8.30422 19.5084C8.55922 19.2984 8.55922 19.2909 8.74672 19.0134C8.54422 18.7059 8.25922 18.2709 7.82422 17.5659C8.13172 17.3784 8.67172 17.0934 9.03172 16.9434Z" fill="currentColor" fill-opacity="0.6"/>
<path fill-rule="evenodd" clip-rule="evenodd" d="M15.0294 17.0098C14.7294 17.5048 14.2044 18.3598 13.7919 18.8548C13.5594 18.9148 13.5519 18.9673 13.2444 19.0798C13.2369 19.2373 13.1994 19.9948 13.2444 20.1673C13.2894 20.2648 14.2119 20.6923 14.3619 20.8123C14.7594 20.7748 15.0144 20.6548 15.2844 20.6248C15.4569 20.3473 15.5394 20.2648 15.6969 19.9348C15.5619 19.7023 15.3144 19.4098 15.2919 19.3198C15.5319 18.8548 15.8169 18.2548 16.2369 17.6173C15.9294 17.4373 15.3969 17.1523 15.0294 17.0098Z" fill="currentColor" fill-opacity="0.6"/>
</svg>