<svg width="24" height="24" viewBox="0 0 24 24" fill="none" xmlns="http://www.w3.org/2000/svg" id="weapon_heavy_bowgun">
<path d="M15.4897 15.3223H13.3852V18.1348H10.7617V15.3223H8.65793C8.56719 15.3223 8.49219 15.3898 8.49219 15.4715V20.5888C8.49219 20.6713 8.56644 20.738 8.65793 20.738H15.4897C15.5804 20.738 15.6554 20.6705 15.6554 20.5888V15.4715C15.6554 15.389 15.5812 15.3223 15.4897 15.3223Z" fill="currentColor" fill-opacity="0.2"/>
<path d="M14.3402 10.916H9.80871C9.74796 10.916 9.69922 10.9618 9.69922 11.0173V14.4718C9.69922 14.5273 9.74871 14.573 9.80871 14.573H10.762V12.9035L11.5697 12.0725H12.5777L13.3855 12.9035V14.573H14.3395C14.4002 14.573 14.449 14.5273 14.449 14.4718V11.0173C14.449 10.9618 14.3995 10.916 14.3395 10.916H14.3402Z" fill="currentColor" fill-opacity="0.2"/>
<path d="M14.3584 8.59419C14.3584 8.64968 14.3096 8.69545 14.2511 8.69545H9.81036C9.75112 8.69545 9.70312 8.64968 9.70312 8.59419V5.20868C9.70312 5.15319 9.75187 5.10742 9.81036 5.10742H14.2511C14.3104 5.10742 14.3584 5.15319 14.3584 5.20868V8.59419Z" fill="currentColor" fill-opacity="0.2"/>
<path d="M13.6441 10.0933C13.6441 10.1331 13.6104 10.1645 13.5684 10.1645H10.4468C10.4056 10.1645 10.3711 10.1323 10.3711 10.0933V9.51657C10.3711 9.4768 10.4048 9.44531 10.4468 9.44531H13.5684C13.6096 9.44531 13.6441 9.47757 13.6441 9.51657V10.0933Z" fill="currentColor" fill-opacity="0.2"/>
<path d="M13.6441 4.28556C13.6441 4.32531 13.6104 4.35682 13.5684 4.35682H10.4468C10.4056 4.35682 10.3711 4.32456 10.3711 4.28556V3.29782C10.3711 3.25805 10.4048 3.22656 10.4468 3.22656H13.5684C13.6096 3.22656 13.6441 3.25882 13.6441 3.29782V4.28556Z" fill="currentColor" fill-opacity="0.2"/>
<g style="mix-blend-mode:multiply">
<path d="M15.4897 15.3223H13.3852V18.1348H10.7617V15.3223H8.65793C8.56719 15.3223 8.49219 15.3898 8.49219 15.4715V20.5888C8.49219 20.6713 8.56644 20.738 8.65793 20.738H15.4897C15.5804 20.738 15.6554 20.6705 15.6554 20.5888V15.4715C15.6554 15.389 15.5812 15.3223 15.4897 15.3223Z" fill="currentColor" fill-opacity="0.2"/>
<path d="M9.80945 14.5711H10.7627V12.9016L11.5705 12.0706H12.5785L13.3862 12.9016V14.5711H14.3402C14.401 14.5711 14.4497 14.5253 14.4497 14.4698V11.0153C14.4497 10.9598 14.4002 10.9141 14.3402 10.9141H9.80871C9.74796 10.9141 9.69922 10.9598 9.69922 11.0153V14.4698C9.69922 14.5253 9.74871 14.5711 9.80871 14.5711H9.80945Z" fill="currentColor" fill-opacity="0.2"/>
<path d="M9.80645 8.69542H14.2472C14.3065 8.69542 14.3544 8.64965 14.3544 8.59417V5.20865C14.3544 5.15317 14.3057 5.10742 14.2472 5.10742H9.80645C9.74722 5.10742 9.69922 5.15317 9.69922 5.20865V8.59417C9.69922 8.64965 9.74796 8.69542 9.80645 8.69542Z" fill="currentColor" fill-opacity="0.2"/>
<path d="M10.4468 9.44531C10.4056 9.44531 10.3711 9.47755 10.3711 9.51655V10.0933C10.3711 10.1331 10.4048 10.1653 10.4468 10.1653H13.5684C13.6096 10.1653 13.6441 10.1331 13.6441 10.0933V9.51655C13.6441 9.4768 13.6104 9.44531 13.5684 9.44531H10.4468Z" fill="currentColor" fill-opacity="0.2"/>
<path d="M10.4468 4.35756H13.5684C13.6096 4.35756 13.6441 4.32531 13.6441 4.28556V3.29779C13.6441 3.25805 13.6104 3.22656 13.5684 3.22656H10.4468C10.4056 3.22656 10.3711 3.25879 10.3711 3.29779V4.28556C10.3711 4.32531 10.4048 4.35756 10.4468 4.35756Z" fill="currentColor" fill-opacity="0.2"/>
</g>
<path d="M12.6391 15.3223H11.5156V17.3848H12.6391V15.3223Z" fill="currentColor" fill-opacity="0.6"/>
<path d="M11.8899 12.8223L11.5156 13.2078V14.572H12.6391V13.2078L12.2649 12.8223H11.8899Z" fill="currentColor" fill-opacity="0.6"/>
<path d="M19.0565 17.3967C19.1412 17.3967 19.211 17.3277 19.211 17.2423V16.6843C19.211 16.5995 19.142 16.5297 19.0565 16.5297H17.7987C17.714 16.5297 17.6442 16.4607 17.6442 16.3753V12.176C17.6442 12.0913 17.5752 12.0215 17.4897 12.0215H15.26C15.1752 12.0215 15.1055 12.0905 15.1055 12.176V12.698C15.1055 12.7827 15.1745 12.8525 15.26 12.8525H16.5882C16.673 12.8525 16.7427 12.9215 16.7427 13.0063V17.2407C16.7427 17.3255 16.8117 17.3953 16.8972 17.3953H19.0565V17.3967Z" fill="currentColor" fill-opacity="0.6"/>
<path d="M21.9478 14.3473V11.9638H20.3128V10.787L21.2548 9.30952V5.606L18.2458 4.67152C18.1295 4.63552 17.216 4.45552 16.7488 4.45552H14.396V2.47852H9.62904V4.45552H7.31227C6.84504 4.45552 5.93227 4.63552 5.81604 4.67152L2.80627 5.58952V9.31026L3.74827 10.7878V11.9645H2.11328V14.348H6.17153V8.12H6.97404L9.62304 9.90652L9.62827 10.187H8.95179C8.95179 10.187 8.95479 14.54 8.95853 14.573H7.74579V21.4895H16.4083V18.1475H19.9618V15.7813H18.3958V14.348H21.947L21.9478 14.3473ZM8.95253 5.76952V8.54826L7.33327 7.45626C7.33327 7.45626 7.27627 7.36926 7.08653 7.36926C6.89679 7.36926 6.10779 7.36777 6.10779 7.36777C6.05453 7.36777 5.98853 7.38726 5.93153 7.41577C5.89779 7.433 5.86704 7.454 5.84453 7.47652L5.53104 7.79C5.50104 7.82 5.42227 8.03226 5.42227 8.05326V13.5973H3.01779C2.96453 13.5973 2.86327 13.4645 2.86327 13.4435V12.9043C2.86327 12.8195 2.93227 12.7145 3.01779 12.7145H4.49827V10.7623C4.49827 10.6775 4.46979 10.5448 4.43604 10.4675L3.61927 9.23C3.61479 9.22026 3.55704 9.08452 3.55704 9.01026V6.30952C3.55704 6.167 3.70404 6.11 3.70404 6.11L4.48179 5.86926L6.03727 5.38852C6.09804 5.36977 6.94104 5.20626 7.31227 5.20626H8.95253V5.77177V5.76952ZM14.396 9.93352L17.0863 8.11926C17.0863 8.11926 17.6953 8.11852 17.8888 8.11777V11.273L15.203 11.276V10.1683H14.3915L14.3953 9.93277L14.396 9.93352ZM10.3738 3.299C10.3738 3.25926 10.4075 3.22777 10.4495 3.22777H13.571C13.5763 3.22777 13.5808 3.22926 13.586 3.23077C13.5958 3.233 13.6048 3.236 13.613 3.24126C13.6333 3.254 13.6475 3.275 13.6475 3.29977V4.28752C13.6475 4.31 13.6355 4.32952 13.6183 4.34226C13.6063 4.35126 13.592 4.35726 13.5755 4.358C13.574 4.358 13.5725 4.35877 13.5718 4.35877H10.4503C10.445 4.35877 10.4405 4.35726 10.436 4.35577C10.4308 4.355 10.4255 4.355 10.421 4.35277C10.394 4.34152 10.3745 4.316 10.3745 4.28677V3.299H10.3738ZM9.70253 5.20926C9.70253 5.15377 9.75127 5.108 9.80979 5.108H14.2505C14.3098 5.108 14.3578 5.15377 14.3578 5.20926V8.59477C14.3578 8.62777 14.3405 8.657 14.3135 8.67577C14.2955 8.68852 14.2738 8.696 14.2498 8.696H9.80904C9.79404 8.696 9.77979 8.693 9.76704 8.68777C9.72879 8.672 9.70104 8.63677 9.70104 8.59477V5.20926H9.70253ZM13.646 9.518V10.0948C13.646 10.1195 13.6318 10.1398 13.6115 10.1533C13.6063 10.1563 13.601 10.16 13.5958 10.1615C13.5875 10.1645 13.5793 10.166 13.5703 10.166H10.4488C10.4075 10.166 10.373 10.1338 10.373 10.094V9.51726C10.373 9.49777 10.3813 9.47977 10.3955 9.467C10.409 9.45426 10.4278 9.446 10.4488 9.446H13.5703C13.5928 9.446 13.6123 9.45577 13.6265 9.47077C13.6385 9.48352 13.646 9.49926 13.646 9.518ZM9.70253 11.0173C9.70253 10.9618 9.75204 10.916 9.81204 10.916H14.3435C14.4043 10.916 14.453 10.9618 14.453 11.0173V14.4718C14.453 14.5273 14.4035 14.573 14.3435 14.573H13.3895V12.9035L12.5818 12.0725H11.5738L10.766 12.9035V14.573H9.81279C9.75204 14.573 9.70327 14.5273 9.70327 14.4718V11.0173H9.70253ZM11.516 14.5723V13.2073L11.8903 12.8218H12.2645L12.6388 13.2073V14.5723H11.5153H11.516ZM12.6395 15.3223V17.3848H11.516V15.3223H12.6395ZM15.659 20.5895C15.659 20.672 15.5848 20.7388 15.4933 20.7388H8.66153C8.57079 20.7388 8.49579 20.6713 8.49579 20.5895V15.4723C8.49579 15.3898 8.57004 15.323 8.66153 15.323H10.7653V18.1355H13.3888V15.323H15.4933C15.584 15.323 15.659 15.3905 15.659 15.4723V20.5895ZM15.995 14.5723H15.197L15.2038 13.6003L15.9958 13.6033V14.5723H15.995ZM19.058 16.5305C19.088 16.5305 19.1158 16.5395 19.1398 16.5545C19.1833 16.5815 19.2125 16.6295 19.2125 16.6843V17.2423C19.2125 17.327 19.1435 17.396 19.058 17.396H16.8988C16.8935 17.396 16.8883 17.3953 16.883 17.3945C16.8058 17.3863 16.7443 17.3218 16.7443 17.2423V13.0078C16.7443 12.9605 16.7225 12.9185 16.6888 12.8908C16.6618 12.8683 16.628 12.854 16.5905 12.854H15.2623C15.1775 12.854 15.1078 12.785 15.1078 12.6995V12.1775C15.1078 12.0928 15.1768 12.023 15.2623 12.023H17.492C17.516 12.023 17.5393 12.029 17.5595 12.0395C17.6105 12.065 17.6458 12.1168 17.6458 12.1775V16.3768C17.6458 16.4615 17.7148 16.5313 17.8003 16.5313H19.058V16.5305ZM18.2165 7.47652C18.194 7.454 18.1633 7.433 18.1295 7.41577C18.0725 7.38652 18.0065 7.36777 17.9533 7.36777C17.9533 7.36777 17.1635 7.36926 16.9745 7.36926C16.7855 7.36926 16.7278 7.45626 16.7278 7.45626L15.1085 8.54826V5.204H16.7488C17.12 5.204 17.963 5.36752 18.0238 5.38626L19.5793 5.867L20.357 6.10777C20.357 6.10777 20.504 6.16477 20.504 6.30726V9.008C20.504 9.08226 20.4455 9.21877 20.4418 9.22777L19.625 10.4653C19.5905 10.5425 19.5628 10.6753 19.5628 10.76V12.7123H21.0433C21.128 12.7123 21.1978 12.8173 21.1978 12.902V13.4413C21.1978 13.4623 21.0965 13.595 21.0433 13.595H18.6388V8.051C18.6388 8.03 18.56 7.81777 18.53 7.78777L18.2165 7.47426V7.47652Z" fill="currentColor"/>
</svg>
