<svg xmlns="http://www.w3.org/2000/svg" width="24" height="24" viewBox="0 0 24 24" fill="none" id="weapon_long_sword">
<path fill-rule="evenodd" clip-rule="evenodd" d="M9.06596 5.92578C9.06596 5.92578 7.46846 4.57578 7.03346 4.26828C6.90596 4.17828 6.82346 4.01328 6.81596 3.98328C6.74846 3.75828 6.71846 3.45828 6.77846 3.34578C6.77846 3.34578 6.81596 3.30078 7.00346 3.30078C7.11596 3.30078 7.34846 3.33078 7.34846 3.33078C7.49846 3.35328 9.07346 4.72578 9.08846 4.79328C9.11096 4.88328 9.06596 5.92578 9.06596 5.92578ZM19.3859 4.81578C19.2209 5.10078 19.0484 5.38578 18.8759 5.60328C18.7974 5.55796 18.7091 5.50657 18.618 5.45349L18.6178 5.45336C18.4827 5.37472 18.3413 5.29241 18.216 5.22078C18.5385 4.74828 18.7709 4.41078 18.7709 4.41078L19.3859 4.81578ZM20.0459 5.24326C19.9707 5.36223 19.8958 5.49035 19.8237 5.61288C19.7234 5.78383 19.6295 5.94408 19.5509 6.05326C19.607 6.09245 19.6859 6.14941 19.7739 6.21281C19.9216 6.31927 20.0943 6.44398 20.2259 6.53326C20.5484 6.06076 20.7734 5.72326 20.7734 5.72326L20.0459 5.24326ZM18.4564 7.54569L18.4562 7.54559C18.072 7.27788 17.6327 6.97186 17.196 6.69078L17.2099 6.67057L17.25 6.61276C17.3685 6.44203 17.4904 6.26639 17.601 6.09078C18.441 6.68328 19.0184 7.05828 19.6034 7.43328C19.4684 7.64328 19.3259 7.85328 19.1909 8.04828C18.9909 7.91812 18.7386 7.74228 18.4565 7.5458L18.4564 7.54569ZM3.17915 18.8074C3.17701 18.7977 3.17516 18.7892 3.17094 18.7808C3.17094 18.7733 3.16344 18.7658 3.16344 18.7733C3.15594 18.7508 3.14844 18.7283 3.14844 18.7058C3.30817 18.7058 3.47844 18.7093 3.65416 18.7129C3.84148 18.7168 4.03496 18.7208 4.22846 18.7208C4.89596 18.7208 5.56346 18.6833 5.98346 18.5033C7.03346 18.0533 7.84344 17.5883 8.72846 16.9508C8.99664 16.7262 9.19589 16.5495 9.36374 16.4007C9.5714 16.2166 9.73094 16.0752 9.91346 15.9383C10.3485 15.5633 11.4359 14.3858 12.3734 13.2983C13.011 12.5633 13.8434 11.5283 14.6909 10.2458C14.7716 10.298 15.0233 10.4702 15.3283 10.6789L15.3287 10.6792L15.329 10.6794C15.506 10.8005 15.701 10.9339 15.8909 11.0633L15.8392 11.1251L15.7336 11.2511C15.5134 11.5139 15.2884 11.7825 15.0585 12.0608L14.9967 12.1347C14.1838 13.1089 13.3508 14.1071 12.5534 14.9483C12.5388 14.965 12.4852 15.0202 12.4119 15.0955C12.222 15.2908 11.9 15.6218 11.781 15.7733C11.6835 15.8858 11.0159 16.5833 11.0159 16.5833C10.5584 17.0108 10.4984 17.0633 10.0784 17.3933C8.91594 18.2333 7.82096 19.0208 6.32096 19.4783C5.71346 19.5908 5.29346 19.6433 4.89596 19.6433C4.45346 19.6433 4.04844 19.5833 3.53844 19.4783L3.47846 19.4633C3.46721 19.4445 3.45596 19.4239 3.44469 19.4033C3.43344 19.3827 3.42219 19.362 3.41094 19.3433C3.36594 19.2608 3.32846 19.1858 3.29096 19.1033C3.29096 19.0922 3.28693 19.0853 3.28183 19.0765C3.27997 19.0733 3.27794 19.0697 3.27594 19.0658C3.26844 19.0433 3.26096 19.0283 3.25346 19.0133L3.23094 18.9683C3.23094 18.9533 3.22346 18.9383 3.21596 18.9233C3.21596 18.9008 3.20846 18.8858 3.20096 18.8708C3.19722 18.8633 3.19533 18.8577 3.19346 18.852C3.19158 18.8464 3.18971 18.8408 3.18594 18.8333C3.18266 18.8233 3.18082 18.8149 3.17915 18.8074ZM16.5659 7.61328C16.3934 7.86078 16.2809 8.02578 16.2809 8.02578C16.3676 8.08218 16.4717 8.15019 16.5874 8.22581C17.1027 8.56254 17.8494 9.05043 18.3209 9.33828C18.3284 9.33078 18.3359 9.31578 18.3434 9.30078C18.3434 9.30078 18.4259 9.17328 18.5684 8.97078C17.5301 8.33791 17.131 8.03728 16.7897 7.78019L16.7894 7.78003L16.7891 7.77978C16.714 7.72319 16.6417 7.66873 16.5659 7.61328ZM5.90846 6.23328C6.08096 6.37578 6.13346 6.40578 6.31346 6.44328C7.19846 6.63078 8.14346 6.84078 9.07346 7.11078V6.16578L8.89346 6.06828C8.72096 5.99328 7.29596 5.34828 7.19096 5.29578C7.16737 5.28399 7.14026 5.26998 7.11076 5.25472C6.95268 5.17297 6.72605 5.05578 6.60596 5.05578C6.38096 5.04828 5.24096 5.04828 5.15846 5.04828C5.15364 5.13958 5.13961 5.31708 5.13014 5.43678C5.12482 5.50393 5.12096 5.5529 5.12096 5.55828C5.12846 5.58078 5.70596 6.06828 5.90846 6.23328ZM11.3159 7.63576C11.3009 7.65826 10.8959 7.99576 10.8209 8.04826C10.7759 8.07826 10.7084 8.08576 10.6109 8.09326C10.5869 8.09326 10.455 8.09086 10.2966 8.08799C10.059 8.08366 9.76194 8.07826 9.68094 8.07826C9.67486 7.39751 9.68849 6.70197 9.70186 6.01962C9.70499 5.86004 9.70811 5.70104 9.71094 5.54326C9.82867 5.55862 9.94989 5.57049 10.0841 5.58363C10.1466 5.58974 10.2119 5.59612 10.2809 5.60326C10.2996 5.60504 10.3185 5.60683 10.3377 5.60863C10.4809 5.62203 10.6389 5.63683 10.7909 5.66326C10.8659 5.67826 10.8659 5.67826 10.9409 5.75326C10.9409 5.75326 11.1584 5.99326 11.2784 6.15826C11.3609 6.27826 11.3234 7.61326 11.3159 7.63576ZM5.21844 8.38578C5.22594 8.38578 7.45344 8.22078 7.45344 8.22078C7.59886 8.21039 7.83148 8.19553 8.07598 8.17987C8.53768 8.15034 9.04171 8.11809 9.08094 8.10828L9.07344 7.44828C9.07344 7.44828 6.03596 7.24578 5.99094 7.24578H5.95344C5.93844 7.25328 5.11346 7.89828 5.09096 8.04078C5.08556 8.07853 5.14604 8.21703 5.18606 8.30864C5.20169 8.34448 5.21424 8.37313 5.21844 8.38578ZM14.7585 6.84828C13.8435 6.88578 12.9435 7.01328 12.036 7.15578C12.036 7.00578 12.036 6.85578 12.0435 6.69828C12.0435 6.66648 12.0393 6.62369 12.0348 6.57697C12.0244 6.4694 12.0121 6.34102 12.0435 6.27828C12.0873 6.20936 12.3406 6.1823 12.4883 6.16653C12.5174 6.16342 12.5424 6.16074 12.561 6.15828C12.7785 6.12078 12.996 6.09078 13.2135 6.06828C14.0385 5.97078 14.8785 5.92578 15.711 5.92578C16.1085 5.92578 16.506 5.93328 16.9035 5.95578C16.8472 6.04203 16.791 6.12641 16.7347 6.21078C16.6785 6.29516 16.6222 6.37953 16.566 6.46578C16.5397 6.50703 16.5135 6.54641 16.4872 6.58578C16.461 6.62516 16.4347 6.66453 16.4085 6.70578C16.4068 6.70895 16.4051 6.71201 16.4035 6.71499C16.3558 6.80375 16.3521 6.81078 16.236 6.81078C16.0387 6.81676 15.8414 6.82034 15.6446 6.82394C15.3476 6.82934 15.0517 6.83474 14.7585 6.84828Z" fill="currentColor" fill-opacity="0.14"/>
<path fill-rule="evenodd" clip-rule="evenodd" d="M18.5694 3.39656L21.8244 5.54156L18.9369 9.74906C19.1469 9.88406 20.2194 10.5966 20.2194 10.5966L18.7344 12.8916C18.7344 12.8916 17.6769 12.2016 17.4669 12.0666C17.4669 12.0666 16.1394 13.7691 15.5244 14.4666C15.1644 14.8641 14.8044 15.2841 14.3919 15.7791C14.3919 15.7791 13.6419 16.5516 13.1769 17.0391C12.7269 17.5191 12.2544 18.0141 11.9769 18.2916L11.8644 18.4041C10.5519 19.6716 9.19438 20.9766 6.78688 21.3666C6.78688 21.3666 5.84187 21.3966 5.57187 21.3966C5.24937 21.3966 4.80687 21.3441 4.80687 21.3441C3.86084 21.0874 3.35223 20.5583 3.14782 20.3456C3.14319 20.3408 3.13871 20.3361 3.13438 20.3316L3.11187 20.3016C2.86437 20.0391 2.45188 19.2591 2.38438 18.8466L2.23438 17.9616L3.13438 17.9766C3.18455 17.9766 3.33959 17.9792 3.52002 17.9822C3.7712 17.9865 4.07157 17.9916 4.20687 17.9916C4.94187 17.9916 5.42937 17.9391 5.66937 17.8341C6.64437 17.4141 7.41688 16.9791 8.24938 16.3791C8.28224 16.3504 8.32516 16.313 8.37519 16.2693C8.67905 16.004 9.24551 15.5093 9.41937 15.3741C9.81687 15.0291 10.8444 13.9191 11.7894 12.8241C12.6144 11.8791 13.3719 10.8741 14.0544 9.84656L14.0619 9.83156C13.8819 9.71156 12.9069 9.04406 12.9069 9.04406C12.9069 9.04406 13.7169 7.87406 13.8369 7.70156C13.3794 7.74656 12.8844 7.81406 12.1344 7.93406L11.8794 7.97156C11.7669 8.13656 11.5194 8.48156 11.2044 8.71406L11.0094 8.85656L7.27437 9.02156C6.43438 9.08156 4.66438 9.20156 4.66438 9.20156L4.19938 7.85156C4.19938 7.85156 5.00937 7.07906 5.34687 6.79406C5.02437 6.53156 4.30437 5.87156 4.30437 5.87156L4.37937 4.31906C4.37937 4.31906 5.90938 4.32656 6.00688 4.32656H6.11188C6.02938 4.09406 5.99937 3.76406 6.01437 3.34406L6.04437 2.63156L7.61188 2.60156L9.82438 4.49906L9.83187 4.80656V4.82156C9.9305 4.83564 10.0232 4.84386 10.1119 4.85171C10.1649 4.8564 10.2164 4.86096 10.2669 4.86656C10.5069 4.88906 11.2269 5.00156 11.2269 5.00156C11.2269 5.00156 11.6619 5.44406 11.7669 5.57906C11.7669 5.57906 14.3544 5.20406 15.7419 5.20406C16.1469 5.20406 17.2869 5.25656 17.2869 5.25656L18.5694 3.39656ZM7.03438 4.29656C7.46938 4.60406 9.06688 5.95406 9.06688 5.95406C9.06688 5.95406 9.11188 4.91156 9.08938 4.82156C9.07438 4.75406 7.49938 3.38156 7.34938 3.35906C7.34938 3.35906 7.11688 3.32906 7.00438 3.32906C6.81688 3.32906 6.77938 3.37406 6.77938 3.37406C6.71938 3.48656 6.74938 3.78656 6.81688 4.01156C6.82438 4.04156 6.90688 4.20656 7.03438 4.29656ZM18.3444 9.32906C18.3369 9.34406 18.3294 9.35906 18.3219 9.36656C17.8232 9.07247 17.0357 8.54948 16.5261 8.21106L16.5259 8.21094L16.5247 8.21014L16.5234 8.20926C16.4362 8.15139 16.3573 8.09897 16.2894 8.05406C16.3044 8.03156 18.7794 4.43156 18.7794 4.43156L20.7819 5.75156C20.7744 5.75906 18.3444 9.32906 18.3444 9.32906ZM13.9719 8.84156L18.5394 11.8491C18.5394 11.8491 18.7944 11.4366 18.9294 11.2116C18.9795 11.1295 19.0325 11.0474 19.0865 10.9636C19.1214 10.9096 19.1566 10.8549 19.1919 10.7991L14.7069 7.76906C14.6319 7.88156 14.1369 8.60906 13.9719 8.84156ZM15.8994 11.0691C15.8394 11.0241 15.7719 10.9791 15.7119 10.9416C15.7119 10.9416 15.7044 10.9416 15.7044 10.9341C15.6744 10.9153 15.6444 10.8947 15.6144 10.8741C15.5844 10.8534 15.5544 10.8328 15.5244 10.8141C15.2694 10.6416 15.0294 10.4766 14.8719 10.3641H14.8644C14.8119 10.3266 14.7669 10.2966 14.7294 10.2741C14.7294 10.2741 14.7219 10.2741 14.7219 10.2666C14.7181 10.2628 14.7125 10.2591 14.7069 10.2553C14.7013 10.2516 14.6956 10.2478 14.6919 10.2441C13.8444 11.5266 13.0119 12.5616 12.3744 13.2966C11.4369 14.3841 10.3494 15.5616 9.91438 15.9366C9.73188 16.0734 9.57232 16.2149 9.36466 16.399C9.19685 16.5478 8.99754 16.7245 8.72937 16.9491C7.84438 17.5866 7.03438 18.0516 5.98438 18.5016C5.56437 18.6816 4.89688 18.7191 4.22938 18.7191C4.03589 18.7191 3.84239 18.7151 3.65508 18.7112C3.47938 18.7076 3.30911 18.7041 3.14938 18.7041C3.14938 18.7266 3.15688 18.7491 3.16438 18.7716C3.16438 18.7748 3.16567 18.7778 3.16717 18.7815C3.16931 18.7866 3.17188 18.7928 3.17188 18.8016C3.17431 18.8089 3.17675 18.8164 3.17924 18.8241C3.19214 18.8638 3.20675 18.9088 3.23188 18.9591C3.23188 18.9628 3.23375 18.9666 3.23562 18.9703C3.2375 18.9741 3.23937 18.9778 3.23937 18.9816L3.26188 19.0266V19.0341C3.26938 19.0491 3.275 19.0622 3.28063 19.0753C3.28625 19.0884 3.29187 19.1016 3.29937 19.1166C3.30687 19.1353 3.31625 19.1541 3.32561 19.1728C3.33498 19.1916 3.34438 19.2103 3.35188 19.2291C3.35188 19.2328 3.35375 19.2347 3.35563 19.2366C3.3575 19.2384 3.35938 19.2403 3.35938 19.2441C3.37063 19.2628 3.38 19.2816 3.38938 19.3003C3.39875 19.3191 3.40813 19.3378 3.41938 19.3566C3.51688 19.5366 3.62188 19.7016 3.68187 19.7691C3.69504 19.7822 3.71004 19.7978 3.72702 19.8154C3.90359 19.9988 4.29359 20.4038 5.03938 20.6091C5.15937 20.6241 5.36937 20.6316 5.60187 20.6316C5.85776 20.6316 6.14426 20.6259 6.36809 20.6216H6.36832C6.51179 20.6188 6.62951 20.6166 6.69687 20.6166C8.855 20.2689 10.0971 19.0823 11.3481 17.8868L11.349 17.886L11.3499 17.8851C11.3938 17.8431 11.4378 17.8011 11.4819 17.7591C11.7692 17.4717 12.2775 16.9356 12.7545 16.4324C13.2362 15.9243 13.6861 15.4498 13.8444 15.2991C14.2631 14.7882 14.6361 14.3667 14.9948 13.9615C15.5996 13.278 16.1636 12.6407 16.8369 11.6991C16.7394 11.6391 16.3344 11.3691 15.8994 11.0691ZM6.31438 6.47156C6.13438 6.43406 6.08187 6.40406 5.90937 6.26156C5.70687 6.09656 5.12938 5.60906 5.12188 5.58656C5.12188 5.58118 5.12576 5.53221 5.13106 5.46506C5.14053 5.34536 5.15457 5.16786 5.15937 5.07656C5.24187 5.07656 6.38188 5.07656 6.60687 5.08406C6.72697 5.08406 6.9536 5.20125 7.11168 5.283C7.14118 5.29826 7.16829 5.31227 7.19188 5.32406C7.29688 5.37656 8.72188 6.02156 8.89437 6.09656L9.07438 6.19406V7.13906C8.14437 6.86906 7.19938 6.65906 6.31438 6.47156ZM10.8219 8.07654C10.8969 8.02404 11.3019 7.68654 11.3169 7.66404C11.3244 7.64154 11.3619 6.30654 11.2794 6.18654C11.1594 6.02154 10.9419 5.78154 10.9419 5.78154C10.8669 5.70654 10.8669 5.70654 10.7919 5.69154C10.6398 5.66511 10.4819 5.65031 10.3387 5.63691C10.3195 5.63511 10.3005 5.63333 10.2819 5.63154C10.2128 5.6244 10.1475 5.61803 10.0851 5.61191C9.95082 5.59877 9.82959 5.5869 9.71187 5.57154C9.70903 5.72934 9.70591 5.88819 9.70278 6.04778C9.68941 6.73012 9.6758 7.42581 9.68188 8.10654C9.76286 8.10654 10.0597 8.11194 10.2973 8.11628H10.2975C10.4559 8.11914 10.5879 8.12154 10.6119 8.12154C10.7094 8.11404 10.7769 8.10654 10.8219 8.07654ZM7.45438 8.24906C7.45438 8.24906 5.22687 8.41406 5.21937 8.41406C5.21516 8.40143 5.20265 8.37276 5.18699 8.33694C5.14698 8.24533 5.08648 8.10681 5.09188 8.06906C5.11438 7.92656 5.93937 7.28156 5.95438 7.27406H5.99188C6.03688 7.27406 9.07438 7.47656 9.07438 7.47656L9.08187 8.13656C9.04265 8.14637 8.53861 8.17862 8.07693 8.20815C7.83243 8.22381 7.59978 8.23868 7.45438 8.24906ZM12.0369 7.18406C12.9444 7.04156 13.8444 6.91406 14.7594 6.87656C15.0526 6.86303 15.3485 6.85763 15.6455 6.85223C15.8423 6.84863 16.0396 6.84504 16.2369 6.83906C16.353 6.83906 16.3568 6.83203 16.4044 6.74327L16.4094 6.73406C16.4356 6.69281 16.4619 6.65344 16.4881 6.61406C16.5144 6.57469 16.5406 6.53531 16.5669 6.49406C16.6231 6.40792 16.6792 6.32366 16.7354 6.2394L16.7356 6.23906C16.7919 6.15469 16.8481 6.07031 16.9044 5.98406C16.5069 5.96156 16.1094 5.95406 15.7119 5.95406C14.8794 5.95406 14.0394 5.99906 13.2144 6.09656C12.9969 6.11906 12.7794 6.14906 12.5619 6.18656C12.5434 6.18902 12.5184 6.1917 12.4893 6.19481C12.3415 6.2106 12.0882 6.23764 12.0444 6.30656C12.013 6.3693 12.0254 6.49768 12.0358 6.60527C12.0403 6.65198 12.0444 6.69478 12.0444 6.72656C12.0369 6.88406 12.0369 7.03406 12.0369 7.18406Z" fill="currentColor"/>
<path d="M19.5519 6.08289C19.6869 5.90289 19.8669 5.56541 20.0469 5.27291L19.3869 4.83789C19.2219 5.12289 19.0419 5.40789 18.8769 5.62539C18.6894 5.52039 18.4269 5.37041 18.2169 5.23541C18.0369 5.49791 17.8269 5.80539 17.6094 6.11289C18.4419 6.70539 19.0194 7.08789 19.6119 7.45539C19.8294 7.14039 20.0394 6.82541 20.2269 6.54791C20.0094 6.41291 19.7019 6.18789 19.5519 6.08289Z" fill="currentColor" fill-opacity="0.46"/>
<path d="M16.5664 7.64156C16.9939 7.94906 17.3014 8.22656 18.5689 9.00656C18.7264 8.77406 18.9514 8.44406 19.1989 8.08406C18.7264 7.77656 17.9614 7.21406 17.2039 6.72656C16.9564 7.07156 16.7314 7.39406 16.5664 7.64156Z" fill="currentColor" fill-opacity="0.46"/>
</svg>