<svg width="24" height="24" viewBox="0 0 24 24" fill="none" xmlns="http://www.w3.org/2000/svg" id="weapon_lance">
<path fill-rule="evenodd" clip-rule="evenodd" d="M17.6792 5.26133L14.4069 5.25983L11.0904 7.01633C11.0904 7.01633 10.6734 7.74008 10.6667 7.76633C10.6607 7.78883 10.8542 10.0733 10.8542 10.0733L11.7392 11.0146L11.7894 16.3051L11.7819 16.2908V16.2953L11.7504 16.2578L10.4199 14.7016L10.2489 14.1676C10.2377 14.1323 9.11869 10.6276 8.92069 9.00683C8.67094 6.96608 8.25394 3.19133 8.25019 3.15383L8.17669 2.48633H6.40444L6.33094 3.15383C6.32644 3.19208 5.91019 6.96608 5.66044 9.00683C5.46244 10.6276 4.34344 14.1323 4.33219 14.1676L4.16119 14.7016L2.64844 16.4708L2.65669 17.8433H5.88694L5.88844 21.5071H8.73769L8.72794 17.8433H11.9222L11.9289 16.7506L11.9297 16.6876L14.6177 19.6388C14.6177 19.6388 17.4077 19.6471 17.4249 19.6388C17.4467 19.6291 20.2615 16.6231 20.2615 16.6231L20.2712 11.1128L21.2117 10.0508L21.3767 7.24433C21.3647 7.22033 17.6792 5.26133 17.6792 5.26133ZM6.40444 9.09908C6.65794 7.03058 7.07644 3.23708 7.07644 3.23708H7.50394C7.50394 3.23708 7.92244 7.03058 8.17594 9.09908C8.38519 10.8098 9.53419 14.3971 9.53419 14.3971H5.04619C5.04619 14.3971 6.19519 10.8098 6.40444 9.09908ZM6.63844 20.7571L6.63694 17.8433H7.97794L7.98544 20.7571H6.63844ZM11.1774 17.0933H3.40219L3.39994 16.7461L4.76344 15.1516H9.81619L11.1797 16.7461L11.1774 17.0933ZM20.4797 9.73508L19.5227 10.7528L19.5122 16.3253L17.1002 18.8903H15.7464H15.4082H15.1959H14.9424L13.9172 17.7998L13.4394 17.2921L12.5304 16.3253L12.5199 10.7528L11.5629 9.73508L11.4407 7.67933L13.3944 6.63233C13.6037 6.51908 13.9734 6.31508 13.9734 6.31508C14.3042 6.13883 14.5554 6.01058 14.5554 6.01058C14.5554 6.01058 14.8104 6.00833 15.1667 6.00908C15.3407 6.00983 15.5394 6.00983 15.7464 6.01058H17.4864L20.6005 7.67933L20.4797 9.73508Z" fill="currentColor"/>
<path fill-rule="evenodd" clip-rule="evenodd" d="M16.8154 7.75L16.8072 8.32225L17.4244 8.94925L16.7539 9.64225V10.192H17.3644L18.0057 9.54025L18.6469 10.192H19.2574V9.64225L18.5869 8.94925L19.2042 8.32225L19.1967 7.75H18.5862L18.0057 8.34925L17.4259 7.75H16.8154Z" fill="currentColor"/>
<path fill-rule="evenodd" clip-rule="evenodd" d="M15.168 6.00781L15.1965 18.8898H15.747V6.00931C15.5415 6.00856 15.3427 6.00781 15.168 6.00781Z" fill="currentColor" fill-opacity="0.6"/>
<path fill-rule="evenodd" clip-rule="evenodd" d="M13.3973 6.63245L13.3711 17.215L13.9201 17.7992L13.9771 6.31445C13.9771 6.3152 13.6066 6.5192 13.3973 6.63245Z" fill="currentColor" fill-opacity="0.6"/>
<g opacity="0.4">
<path fill-rule="evenodd" clip-rule="evenodd" d="M14.557 6.00947C14.557 6.00947 14.3057 6.13847 13.975 6.31397L13.918 17.7987L14.9432 18.8892H15.1967L15.1682 6.00797C14.812 6.00722 14.557 6.00947 14.557 6.00947Z" fill="currentColor"/>
</g>
</svg>
