<svg xmlns="http://www.w3.org/2000/svg" width="24" height="24" viewBox="0 0 24 24" fill="none" id="weapon_charge_blade">
  <path d="M13.616 4.375L12.0022 5.85257L10.3884 4.375H4.3125L4.78839 6.28048L5.03145 12.208L7.70323 14.8376H9.83834V12.2886L10.6289 12.9455V14.9847L9.92405 15.0288V18.3837H11.2667V18.866H10.6065V20.7619H13.2732V18.866H12.6336V18.465H13.3775V17.7876H13.9781V13.6191L13.3173 13.5775V12.9877L14.1591 12.2963V14.8376H16.3818L18.9711 12.1965L19.0997 6.23635L19.6875 4.375H13.616ZM9.19806 13.479V14.1979H7.96484L5.66022 11.9298L5.42483 6.18966L5.13188 5.01528H9.85945V6.42696L8.50533 6.4244H8.47911V11.4014H9.19806V13.4796V13.479ZM10.5631 15.6288L11.2679 15.5847V16.2896H10.5631V15.6288ZM10.5631 17.7428V16.9938L11.2679 17.0181V17.7428H10.5631ZM12.6336 20.121H11.2462V19.5044H12.6336V20.121ZM12.6336 18.4471H11.9287V17.7863H12.6336V18.4471ZM13.3384 14.1967V14.9124H12.6393V15.6064H13.3384V16.397H12.6393V17.0379H13.3135L13.3775 17.7601H12.6336V17.0379H11.9728V14.9124H12.6336V14.1967H11.9204V14.8958H11.9063L11.2679 14.8792V13.5135H12.6336V14.196H13.3384V14.1967ZM12.0278 12.6935L9.24667 10.6313V7.10114H14.7872L14.8013 10.5878L14.3094 10.9639L12.0272 12.6935H12.0278ZM18.462 6.13017L18.3366 11.9291L16.1132 14.1973H14.7987V11.4002H15.5183V6.43784H15.4998L14.138 6.43528V5.01464H18.8144L18.462 6.13017Z" fill="currentColor"/>
  <path d="M9.87891 7.83594V9.9282L11.9929 11.338L14.0852 9.9282V7.83594H9.87891ZM13.3918 9.75166L11.9936 10.5883L10.5838 9.75166V8.34189H13.3918V9.75166Z" fill="currentColor" fill-opacity="0.6"/>
  <path d="M17.83 11.0935C17.83 9.99202 16.5085 10.3003 16.5085 9.68371C16.5085 9.0671 17.83 9.33127 17.83 8.18632C17.83 6.86482 16.4202 7.48143 16.4202 6.68892C16.4202 6.00515 17.7462 6.39916 17.8255 5.01562H14.1367V6.43626L15.4985 6.43882H15.5171V11.4018H14.7975V13.5356C15.7141 13.3482 17.83 12.1086 17.83 11.0935Z" fill="currentColor" fill-opacity="0.6"/>
  <path d="M7.78867 6.68892C7.78867 7.48143 6.37891 6.86482 6.37891 8.18631C6.37891 9.33127 7.7004 9.0671 7.7004 9.68371C7.7004 10.3003 6.37891 9.99201 6.37891 11.0935C6.37891 12.0363 8.20316 13.1729 9.19779 13.48V11.4018H8.47884V6.42411H8.50507L9.85918 6.42667V5.01562H6.38274C6.46206 6.39852 7.78803 6.00515 7.78803 6.68892H7.78867Z" fill="currentColor" fill-opacity="0.6"/>
  <path opacity="0.4" d="M13.3933 8.33984H10.5859V9.74961L11.9951 10.5863L13.3933 9.74961V8.33984Z" fill="currentColor"/>
  <path opacity="0.4" d="M10.5625 15.6281V16.2889H11.2674V15.584L10.5625 15.6281Z" fill="currentColor"/>
  <path opacity="0.4" d="M11.2461 20.1205H12.6341V19.5039H11.2461V20.1205Z" fill="currentColor"/>
  <path opacity="0.4" d="M10.5625 16.9922V17.7412H11.2674V17.4604V17.0165L10.5625 16.9922Z" fill="currentColor"/>
  <path opacity="0.4" d="M12.0307 17.7852H11.9258V18.4459H12.6307V17.7852H12.0307Z" fill="currentColor"/>
  <path opacity="0.4" d="M12.6313 13.5137H11.2656V14.8787L11.9181 14.8953V14.1962H12.6313V13.5137Z" fill="currentColor"/>
</svg>