<svg xmlns="http://www.w3.org/2000/svg" width="24" height="24" viewBox="0 0 24 24" fill="none" id="weapon_sword_shield">
<path d="M7.425 17.7754H5.25V19.1254H7.425V17.7754Z" fill="currentColor" fill-opacity="0.3"/>
<path d="M19.2734 11.1758H15.1484V15.6008H19.2734V11.1758Z" fill="currentColor" fill-opacity="0.3"/>
<path d="M7.425 19.4258H5.25V20.7758H7.425V19.4258Z" fill="currentColor" fill-opacity="0.3"/>
<path fill-rule="evenodd" clip-rule="evenodd" d="M8.02312 2.17578C5.92312 2.55078 4.62562 4.47828 4.62562 4.47828V15.2483C3.56062 15.2483 1.64062 15.2558 1.64062 15.2558V17.9033L4.62562 17.9108V21.4358H8.01562V17.9108H10.1981V15.2483H8.01562C8.01562 15.2558 8.02312 2.70078 8.02312 2.17578ZM17.2256 8.13076C14.3156 8.13076 11.9531 10.5008 11.9531 13.4033C11.9531 16.3058 14.3231 18.6758 17.2256 18.6758C20.1281 18.6758 22.4981 16.3058 22.4981 13.4033C22.4981 10.5008 20.1281 8.13076 17.2256 8.13076ZM5.37562 4.85328C5.69812 4.35078 6.74812 3.45078 7.26562 3.32328V15.2483H5.37562V7.53078V4.85328ZM2.39062 17.1608V16.0133C2.56427 16.0133 4.29737 16.0106 5.70544 16.0085L5.71639 16.0085H5.71832C6.67648 16.007 7.481 16.0058 7.53562 16.0058V17.1683L2.39062 17.1608ZM8.30812 17.1683H9.44812V16.0058H8.30812V17.1683ZM20.8106 12.8708V14.1083C21.0656 14.1083 21.6206 14.1083 21.7331 14.1008C21.4331 16.0958 19.8356 17.6708 17.8256 17.9258C17.8256 17.8606 17.8243 17.7336 17.8228 17.5854L17.8228 17.5826L17.8228 17.5824V17.5821C17.8207 17.3731 17.8181 17.1225 17.8181 16.9433H16.5881V17.9108C14.6156 17.6258 13.0556 16.0733 12.7556 14.1008H13.6031V12.8633H12.7406C12.9881 10.8308 14.5706 9.22578 16.5881 8.93328V10.0283H17.8256V8.92578C19.8806 9.18828 21.5006 10.8158 21.7481 12.8708H20.8106ZM19.5956 15.6008C19.7306 15.4583 19.8131 15.2708 19.8131 15.0683V11.9333C19.8131 11.7308 19.7381 11.5433 19.5956 11.4008L19.3031 11.1083C19.1606 10.9733 18.9731 10.8908 18.7706 10.8908H15.6356C15.4331 10.8908 15.2456 10.9658 15.1031 11.1083C15.0884 11.123 15.0567 11.1531 15.0194 11.1885L15.0187 11.1892L15.0185 11.1894C14.9422 11.2617 14.8432 11.3557 14.8181 11.3858C14.6831 11.5283 14.6006 11.7158 14.6006 11.9183V14.9708C14.6006 15.1733 14.6756 15.3608 14.8181 15.5033L15.1931 15.8783C15.3356 16.0133 15.5231 16.0958 15.7256 16.0958C15.9256 16.0958 17.1853 16.0991 18.0231 16.1013L18.0448 16.1014L18.0619 16.1014L18.0664 16.1014H18.0667L18.0796 16.1015C18.4701 16.1025 18.7566 16.1033 18.7781 16.1033C18.9806 16.1033 19.1681 16.0283 19.3106 15.8858L19.5956 15.6008ZM5.37562 18.9383H7.26562V17.9183H5.37562V18.9383ZM7.26562 20.6933H5.37562V19.7483H7.26562V20.6933ZM15.4872 11.6953L15.4871 11.6955C15.4385 11.7422 15.391 11.7879 15.3506 11.8283V14.8808L15.7256 15.2558C16.0313 15.2558 17.0859 15.2587 17.8726 15.2609C18.3406 15.2622 18.7138 15.2633 18.7781 15.2633L19.0631 14.9783V11.8433L18.7706 11.5508H15.6356C15.5897 11.5967 15.5379 11.6465 15.4872 11.6953Z" fill="currentColor"/>
</svg>