<svg xmlns="http://www.w3.org/2000/svg" width="24" height="24" viewBox="0 0 24 24" fill="none" id="weapon_great_sword">
<path d="M17.6282 3.33431L17.6312 3.33054C17.6312 3.33054 17.1758 3.25402 16.4345 3.21875C15.9438 3.41607 15.3743 3.68017 14.8236 4.0178C13.9968 4.52499 12.9802 5.15971 12.1121 5.93174C11.2853 6.66627 10.9725 7.07216 10.5403 7.65888C9.61898 8.91183 9.58748 9.41527 9.52296 9.77915C9.46742 10.095 9.46817 15.9314 9.46892 17.4785L10.3025 17.1003C10.2942 15.6868 10.268 10.651 10.3047 10.026C10.3475 9.29748 10.4653 8.97637 11.022 8.16307C11.5787 7.34977 11.9441 7.14869 12.5736 6.54472C13.4792 5.6759 14.7029 4.90537 15.67 4.36143C16.3992 3.95103 17.0347 3.67792 17.5021 3.50311C17.5712 3.41082 17.6154 3.35156 17.6274 3.33581L17.6282 3.33431Z" fill="currentColor" fill-opacity="0.6"/>
<path fill-rule="evenodd" clip-rule="evenodd" d="M12.6738 8.66797C11.0495 8.66797 10.997 11.1716 12.7181 11.1716C14.4392 11.1716 14.3995 8.66797 12.6738 8.66797ZM12.7043 9.41825C12.029 9.41825 12.0065 10.4596 12.7223 10.4596C13.438 10.4596 13.4223 9.41825 12.7043 9.41825Z" fill="currentColor" fill-opacity="0.6"/>
<path fill-rule="evenodd" clip-rule="evenodd" d="M12.6738 12.2676C11.0495 12.2676 10.997 14.7712 12.7181 14.7712C14.4392 14.7712 14.4002 12.2676 12.6738 12.2676ZM12.7043 13.0178C12.029 13.0178 12.0065 14.0592 12.7223 14.0592C13.438 14.0592 13.4223 13.0178 12.7043 13.0178Z" fill="currentColor" fill-opacity="0.6"/>
<path fill-rule="evenodd" clip-rule="evenodd" d="M15.8016 5.90208C16.215 5.23734 17.1604 3.96262 17.5055 3.50195C17.0381 3.67676 16.4026 3.94985 15.6733 4.36025C14.7062 4.90421 13.4825 5.67399 12.577 6.54356C12.4032 6.71028 12.2496 6.84632 12.1066 6.97299C11.7315 7.3052 11.429 7.57312 11.0254 8.16191C10.4679 8.97521 10.3509 9.29707 10.3081 10.0248C10.2714 10.6498 10.2976 15.6857 10.3059 17.0992L14.9831 14.9752C14.9831 14.9752 14.4159 14.2451 14.3761 13.7455C14.2816 12.56 14.2823 10.1231 14.4331 9.0915C14.5817 8.07112 15.0071 7.1798 15.8016 5.90283V5.90208ZM12.6735 8.6676C11.0491 8.6676 10.9966 11.1713 12.7177 11.1713C14.4389 11.1713 14.3991 8.6676 12.6735 8.6676ZM12.6735 12.2689C11.0491 12.2689 10.9966 14.7726 12.7177 14.7726C14.4389 14.7726 14.3999 12.2689 12.6735 12.2689Z" fill="currentColor" fill-opacity="0.4"/>
<path d="M17.5357 18.4514C17.5252 18.4514 16.6714 18.4626 16.6684 18.4626C16.5281 18.4626 15.8266 18.3981 15.8251 18.3974C15.8206 18.3959 15.8063 18.3898 15.7868 18.3801C15.7081 18.3403 15.471 18.1137 15.4057 18.0297C15.3022 17.8962 15.2039 17.7379 15.1213 17.5713C15.0643 17.4557 14.9225 17.0416 14.8978 16.9148C14.8595 16.7137 14.8265 16.4624 14.8002 16.166C14.7927 16.0767 14.8115 15.9004 14.8115 15.9004L15.2917 15.6566L16.1567 15.2634L15.5745 14.5132C15.3547 14.2281 15.1348 13.8237 15.1228 13.6834C15.0298 12.5189 15.0381 10.1338 15.1746 9.19672C15.3592 7.92876 15.7028 7.41182 16.138 6.75758C16.2347 6.61202 16.3353 6.46123 16.4373 6.29616C16.9243 5.51287 18.2185 3.79701 18.232 3.77974L18.9883 2.77813L17.7481 2.58606C17.709 2.58006 16.7719 2.4375 15.4402 2.4375C14.1085 2.4375 12.2575 2.57631 10.5214 3.2388C7.9322 4.22916 6.22608 7.17098 6.15482 7.29628L6.1443 7.31428L6.1353 7.33305C6.05428 7.49436 5.34077 8.94163 5.16669 9.98676C5.04065 10.7393 5.0519 15.3775 5.08267 19.1364L5.09242 20.2903L6.14355 19.8131L10.1103 18.0117L11.1621 17.5338C11.2589 17.9569 11.3557 18.3163 11.4502 18.6014C11.511 18.7845 11.7969 19.3704 11.8846 19.5302C12.0887 19.9024 12.3168 20.2956 12.6597 20.6497C12.8 20.7952 13.4715 21.2559 13.6838 21.3339C14.1062 21.4892 14.7792 21.5642 15.7411 21.5642C15.7411 21.5642 16.5176 21.5432 16.6677 21.5432C16.6782 21.5432 17.55 21.4922 17.5642 21.4914C17.9476 21.4599 18.2447 21.1442 18.253 20.7593L18.2852 19.2174C18.2897 19.0103 18.208 18.8107 18.0602 18.6659C17.9199 18.5286 17.7308 18.4521 17.5357 18.4521V18.4514ZM9.79965 17.3282L9.64959 17.3965V17.3882L9.47102 17.4775L5.83218 19.1304C5.81268 16.7723 5.77742 10.8788 5.90572 10.1106C6.06628 9.14646 6.80529 7.66916 6.80529 7.66916C6.80529 7.66916 8.41989 4.84588 10.7893 3.94254C12.3716 3.33934 14.1107 3.19078 15.4402 3.19078C16.2708 3.19078 16.9393 3.24855 17.3114 3.28982C17.3159 3.28982 17.3196 3.29057 17.3241 3.29132C17.3414 3.29357 17.3587 3.29507 17.3744 3.29732C17.3812 3.29807 17.3879 3.29882 17.3947 3.29957C17.4022 3.30032 17.4104 3.30107 17.4172 3.30257C17.556 3.31907 17.6333 3.33107 17.6333 3.33107C17.6333 3.33107 16.3113 5.08222 15.8003 5.90302C15.0058 7.17999 14.5804 8.07131 14.4318 9.09169C14.2818 10.1241 14.2803 12.5602 14.3748 13.7456C14.4146 14.2453 14.9818 14.9753 14.9818 14.9753L9.7989 17.329L9.79965 17.3282ZM11.8599 17.2172L14.0537 16.232C14.0777 16.5052 14.1122 16.8 14.1617 17.0558L12.163 18.3651C12.0467 18.0124 11.9394 17.575 11.8606 17.2164L11.8599 17.2172ZM13.1991 20.1283C12.9133 19.8326 12.713 19.4807 12.5419 19.1687L14.4491 17.9044C14.5504 18.1085 14.6734 18.3096 14.813 18.4896L13.1991 20.1283ZM15.8003 20.814C15.7808 20.814 15.7606 20.814 15.7411 20.814C15.0516 20.814 14.3335 20.7735 13.9427 20.6295L15.45 19.0507C15.4912 19.0717 15.5332 19.0899 15.576 19.1057C15.6345 19.1267 15.7118 19.1439 15.8011 19.1574V20.814H15.8003ZM17.5027 20.7435C17.5027 20.7435 17.1546 20.772 16.6677 20.793V19.2129L17.535 19.2017L17.5027 20.7435Z" fill="currentColor"/>
</svg>