<svg xmlns="http://www.w3.org/2000/svg" width="24" height="24" viewBox="0 0 24 24" fill="none" id="weapon_switch_axe">
  <path fill-rule="evenodd" clip-rule="evenodd" d="M16.5749 2.21484L16.5673 5.79897L15.5938 5.79517V3.33716H8.08839L8.08384 4.24762H3L3.02278 13.58L3.02658 13.6187C3.04556 13.7995 3.23464 15.407 4.01677 16.2377C4.82851 17.1003 5.88628 17.644 5.88628 17.644H8.79762L8.71106 16.3964C8.71106 16.3964 7.88413 15.5072 7.47788 14.8139C7.38524 14.6568 7.1673 14.0751 7.06099 13.5314V12.5572H8.71485V11.7371H9.78705V13.5633H8.92975V15.9287H9.80756V19.588H10.5844L10.5791 21.4339H14.6621V18.1262H13.8784V15.9294H15.593V10.9056H16.5559L16.5475 14.6302L21.5 9.86148V2.21484H16.5741H16.5749ZM7.95551 11.7978H6.30165V13.6028C6.30165 13.6028 6.55679 14.8474 6.8947 15.2992C7.59178 16.2317 8.32303 16.8847 8.32303 16.8847H6.06853C6.06853 16.8847 5.30083 16.4936 4.56957 15.7176C3.94007 15.0493 3.78137 13.5398 3.78137 13.5398L3.76011 5.00773L7.95475 5.02595V6.73524H6.30089V10.0718L7.95475 10.0893V11.7986L7.95551 11.7978ZM11.3263 15.9955V18.8286H10.5669V15.9431H11.3263V15.9955ZM13.9027 18.8856V20.6746H11.3407L11.3437 18.8856H12.0856V15.9955H13.1191V18.8856H13.9027ZM14.8344 15.1693H9.68986V14.3227H10.5472V12.6285H12.3347H12.3377L14.0379 12.624C14.0379 12.624 14.0379 12.6255 14.0379 12.6285H14.8344V15.1693ZM14.8344 11.8457H10.5472V10.9777H8.80066V9.30488H7.14908V7.52648H8.82192L8.84318 4.09651H14.8352V11.8457H14.8344ZM20.7414 9.538L18.9934 11.2215L17.3114 12.8412L17.3327 2.97495H20.7414V9.538Z" fill="currentColor"/>
  <path fill-rule="evenodd" clip-rule="evenodd" d="M8.84254 4.0957L8.82128 7.52568H7.14844V9.30407H8.80002V10.9769H10.5465V11.8449H14.8338V4.0957H8.84178H8.84254ZM12.7995 11.0544C11.0978 11.0544 11.1502 8.57965 12.7562 8.57965C14.4625 8.57965 14.4306 11.0544 12.7995 11.0544ZM12.7995 7.49758C11.0978 7.49758 11.1502 5.02287 12.7562 5.02287C14.4625 5.02287 14.4306 7.49758 12.7995 7.49758Z" fill="currentColor" fill-opacity="0.4"/>
  <path d="M13.1194 16.9043H12.0859V17.6879H13.1194V16.9043Z" fill="currentColor" fill-opacity="0.4"/>
  <path fill-rule="evenodd" clip-rule="evenodd" d="M14.0363 12.6297C14.031 12.7117 13.93 13.9221 12.7978 13.9137C11.6094 13.9054 11.5365 12.6312 11.5365 12.6312L10.5448 12.6289V14.323H9.6875V15.1697H14.8321V12.6289H14.0355L14.0363 12.6297Z" fill="currentColor" fill-opacity="0.2"/>
  <path fill-rule="evenodd" clip-rule="evenodd" d="M7.95464 6.73533V5.02604L6.30078 5.00781V6.73533H7.95464Z" fill="currentColor" fill-opacity="0.2"/>
  <path fill-rule="evenodd" clip-rule="evenodd" d="M17.3125 12.8408L18.9937 11.2219L18.1379 10.4906L19.8745 8.77603L18.1379 7.08192L19.895 5.36732L18.1075 4.04073L19.1706 2.98068L19.1471 2.97461H17.3338L17.3125 12.8408Z" fill="currentColor" fill-opacity="0.2"/>
  <path fill-rule="evenodd" clip-rule="evenodd" d="M6.30078 11.799H7.95464V10.0897L6.30078 10.0723V11.799Z" fill="currentColor" fill-opacity="0.2"/>
  <path fill-rule="evenodd" clip-rule="evenodd" d="M10.5861 18.8289H11.3258V18.1265V15.9958V15.9434H10.5664V18.8289H10.5861Z" fill="currentColor" fill-opacity="0.6"/>
  <path fill-rule="evenodd" clip-rule="evenodd" d="M12.0859 19.5878H13.149V18.8854H13.1194V18.8535H12.0859V18.8854V19.5878Z" fill="currentColor" fill-opacity="0.6"/>
  <path fill-rule="evenodd" clip-rule="evenodd" d="M12.7572 5.02344C11.152 5.02344 11.0996 7.49815 12.8005 7.49815C14.5015 7.49815 14.4635 5.02344 12.7572 5.02344ZM12.7762 6.79044C12.0685 6.79044 12.0905 5.76076 12.758 5.76076C13.468 5.76076 13.4543 6.79044 12.7762 6.79044Z" fill="currentColor" fill-opacity="0.6"/>
  <path fill-rule="evenodd" clip-rule="evenodd" d="M12.7572 8.58008C11.152 8.58008 11.0996 11.0548 12.8005 11.0548C14.5015 11.0548 14.4635 8.58008 12.7572 8.58008ZM12.7762 10.3463C12.0685 10.3463 12.0905 9.31665 12.758 9.31665C13.468 9.31665 13.4543 10.3463 12.7762 10.3463Z" fill="currentColor" fill-opacity="0.6"/>
  <path fill-rule="evenodd" clip-rule="evenodd" d="M13.3478 12.6303C13.3478 12.6303 13.3045 13.2044 12.8398 13.2044C12.3751 13.2044 12.3356 12.6288 12.3356 12.6288L11.5391 12.6311C11.5391 12.6311 11.612 13.9053 12.8003 13.9136C13.972 13.922 14.0388 12.625 14.0388 12.625L13.3478 12.6311V12.6303Z" fill="currentColor" fill-opacity="0.6"/>
  <path fill-rule="evenodd" clip-rule="evenodd" d="M12.3359 12.6289C12.3359 12.6289 12.3716 13.2045 12.8401 13.2045C13.3087 13.2045 13.3481 12.6304 13.3481 12.6304L12.3359 12.6289Z" fill="currentColor" fill-opacity="0.2"/>
  <path fill-rule="evenodd" clip-rule="evenodd" d="M12.7566 5.75977C12.0891 5.75977 12.0671 6.78944 12.7748 6.78944C13.4825 6.78944 13.4666 5.75977 12.7566 5.75977Z" fill="currentColor" fill-opacity="0.2"/>
  <path fill-rule="evenodd" clip-rule="evenodd" d="M12.7566 9.31836C12.0891 9.31836 12.0671 10.348 12.7748 10.348C13.4825 10.348 13.4666 9.31836 12.7566 9.31836Z" fill="currentColor" fill-opacity="0.2"/>
</svg>