<svg xmlns="http://www.w3.org/2000/svg" width="24" height="24" viewBox="0 0 24 24" fill="none" id="weapon_insect_glaive">
<path fill="currentColor" d="M8.09908 14.3162L8.11736 14.3176C8.15885 14.3204 8.19892 14.3225 8.2383 14.3239L8.24533 14.3267H8.38525C8.42744 14.3267 8.46892 14.326 8.5097 14.3239L8.53361 14.3225C8.57439 14.3211 8.61447 14.3183 8.65525 14.3155H8.6658C8.69674 14.312 8.72767 14.3091 8.75861 14.3063H8.78533L8.82471 14.2993C8.86197 14.2951 8.89924 14.2902 8.93791 14.2845C10.0812 14.12 11.1471 13.4837 11.5845 13.097C11.9156 12.8038 12.3066 12.2117 12.391 10.2212C12.4324 9.25297 12.3811 8.38039 12.3755 8.2918C12.3467 7.70188 11.9241 7.25047 11.576 6.96219L11.6189 6.86023C11.8826 6.23164 11.6393 5.50602 11.0403 5.13477C10.8096 4.99203 10.5467 4.91609 10.2795 4.91609C10.181 4.91609 10.0826 4.92664 9.98627 4.94703C9.859 4.97375 9.73877 5.01875 9.62767 5.07711V4.78391C9.62556 4.62008 9.5651 4.02945 8.86478 3.32914L8.36767 2.83203L7.87056 3.32914C7.22439 3.97531 7.17236 4.5568 7.1808 4.77898V5.06937C7.07322 5.01453 6.95791 4.97234 6.83627 4.94703C6.73994 4.92664 6.6415 4.91609 6.54236 4.91609C6.27517 4.91609 6.0122 4.99133 5.78088 5.13477C5.18252 5.50531 4.93924 6.23094 5.20291 6.86023L5.24299 6.95516C4.92869 7.22867 4.54478 7.66531 4.49978 8.27633C4.43017 9.11727 4.26424 11.9122 5.00252 12.8804C5.41455 13.4204 6.71814 14.2184 8.09697 14.3162H8.09908ZM10.1332 5.63469C10.316 5.59602 10.508 5.63047 10.6718 5.73242C10.9756 5.92086 11.0979 6.28789 10.972 6.58812C10.8595 6.56562 10.6296 6.48477 10.3231 6.29703C10.013 6.10719 9.83791 5.93844 9.769 5.84914C9.86111 5.74086 9.98697 5.66633 10.1332 5.63539V5.63469ZM6.15283 5.73242C6.27306 5.65789 6.40806 5.61922 6.54377 5.61922C6.59299 5.61922 6.64291 5.62414 6.69142 5.63469C6.83697 5.66563 6.96353 5.74016 7.05564 5.84844C6.98674 5.93773 6.81166 6.10648 6.50158 6.29633C6.19502 6.48406 5.9651 6.56492 5.8526 6.58742C5.72674 6.28719 5.84838 5.92016 6.15283 5.73172V5.73242ZM7.88533 6.27383V4.76211C7.88533 4.76211 7.8326 4.36203 8.36908 3.82555C8.92174 4.3775 8.92595 4.79094 8.92595 4.79094V6.28227C8.92595 6.28227 11.0023 7.07188 11.0023 7.56898H5.79705C5.79705 7.07188 7.88533 6.27313 7.88533 6.27313V6.27383ZM5.20221 8.33047H11.6752C11.6752 8.33047 11.8995 11.8798 11.1197 12.5703C10.7892 12.8628 9.85408 13.4422 8.83877 13.5884C8.8001 13.5941 8.76213 13.599 8.72346 13.6032C8.72346 13.6032 8.72275 13.6032 8.72205 13.6032C8.68549 13.6074 8.64892 13.6109 8.61236 13.6137C8.60955 13.6137 8.60674 13.6138 8.60392 13.6145C8.57088 13.6173 8.53713 13.6187 8.50408 13.6201C8.49845 13.6201 8.49213 13.6208 8.4865 13.6208C8.44924 13.6222 8.41127 13.6229 8.374 13.6229C8.3733 13.6229 8.37189 13.6229 8.37119 13.6229C8.30088 13.6229 8.22986 13.6201 8.15955 13.6152C8.15814 13.6152 8.15674 13.6152 8.15533 13.6152C6.98955 13.5343 5.87017 12.8537 5.56431 12.4536C4.9308 11.6239 5.20361 8.33047 5.20361 8.33047H5.20221Z" />
<path fill="currentColor" d="M8.64383 17.776L8.66281 17.7816C8.65156 17.769 8.63398 17.7507 8.60938 17.7261L8.64312 17.7753L8.64383 17.776Z" />
<path fill="currentColor" d="M19.6822 3.86918L18.6605 3.24902L18.6148 4.44363C18.6148 4.44363 18.6113 4.52801 18.6043 4.66863C18.5094 6.01863 18.2907 7.84957 17.9616 8.94785C17.6234 10.075 16.8388 11.1507 16.831 11.1606L16.779 11.2309L15.6603 11.2822L15.8698 12.4804L11.3895 16.8172L11.2932 16.7139L10.2793 16.6246L9.76039 17.3854L9.10156 17.1814L8.77531 16.723L8.60516 15.643L7.01539 15.2823L6.77563 16.1907L6.48734 16.2111L6.23352 15.6107H4.78578L4.61914 16.8784C4.29359 17.2046 3.95399 17.7693 3.99336 18.5427C4.00461 18.7614 4.02711 18.9667 4.06086 19.1537C4.07352 19.243 4.0932 19.333 4.11922 19.4209C4.28656 20.0544 4.58047 20.3483 4.80406 20.484C5.57258 21.2146 6.82555 21.68 8.04195 21.68C8.91945 21.68 9.70977 21.5169 10.3911 21.1949L10.3953 21.2012C10.4002 21.1984 10.5184 21.1365 10.6625 21.0557L10.7005 21.0339C10.872 20.9361 11.0035 20.8539 11.0998 20.7843C11.2173 20.6999 11.3403 20.5888 11.4753 20.4446C11.5358 20.3835 11.5829 20.33 11.6202 20.2857L13.0925 19.6206L12.9399 18.812L17.6916 13.9576L18.1958 14.1109L18.4257 13.1019L18.6085 12.9915C18.7006 12.9353 20.8747 11.586 21.2804 8.56043C21.736 5.15871 19.7652 3.92051 19.6808 3.86918H19.6822ZM10.9698 19.9567C10.8882 20.0439 10.787 20.1437 10.6906 20.2126C10.6006 20.2773 10.4705 20.3554 10.3524 20.4229C10.3405 20.4299 10.3292 20.4362 10.3173 20.4432C10.1816 20.5199 10.0698 20.5782 10.0698 20.5782C10.0698 20.5782 10.0796 20.5705 10.0951 20.5571C9.61133 20.7864 8.94055 20.9762 8.04336 20.9762C6.91414 20.9762 5.81445 20.5213 5.21398 19.8983C5.21539 19.9018 5.2168 19.9039 5.2168 19.9039C5.2168 19.9039 4.95242 19.8273 4.79773 19.2296C4.77875 19.1671 4.76469 19.1045 4.75625 19.0412C4.72813 18.89 4.70703 18.7143 4.69649 18.5068C4.65149 17.6336 5.28148 17.2398 5.28148 17.2398L5.40313 16.3138H5.76875L6.03664 16.9473L7.32828 16.8573L7.52305 16.1183L7.98641 16.2231L8.10805 16.9951L8.66774 17.7819L9.79836 18.1321L11.1301 19.7732C11.1301 19.7732 11.0795 19.8463 10.9705 19.956L10.9698 19.9567ZM11.7207 19.4694L10.3011 17.8417L10.6288 17.3614L10.9641 17.391L12.2094 18.7227L12.3008 19.2071L11.7214 19.4694H11.7207ZM12.4941 18.2636L11.7629 17.4353L16.3445 13L17.0272 13.6335L12.4948 18.2636H12.4941ZM17.6797 13.2193L17.2086 13.0759L16.5737 12.4192L16.4914 11.9481L16.9421 11.9277L17.783 12.7686L17.6804 13.2193H17.6797ZM20.585 8.46691C20.2194 11.1936 18.2457 12.3904 18.2457 12.3904L17.7634 11.9221L17.7584 11.9277L17.3977 11.5782C17.3977 11.5782 18.257 10.4146 18.6359 9.14965C19.074 7.68855 19.2624 5.35207 19.3074 4.71152C19.3152 4.55895 19.3187 4.47105 19.3187 4.47105C19.3187 4.47105 20.9858 5.48215 20.5857 8.46762L20.585 8.46691Z" />
<path fill="currentColor" d="M8.15638 13.6153C8.08536 13.6103 8.01434 13.6033 7.94403 13.5942V10.9342L6.82255 9.67564L5.84872 8.33057H5.20466C5.20466 8.33057 4.93255 11.624 5.56536 12.4537C5.87122 12.8538 6.99059 13.5344 8.15638 13.6153Z" fill-opacity="0.2"/>
<path fill="currentColor" d="M10.9745 8.33057L10.0387 9.58775L8.83984 10.9722V13.5871C9.85516 13.4409 10.7903 12.8629 11.1208 12.5704C11.9013 11.8792 11.6762 8.33057 11.6762 8.33057H10.9745Z" fill-opacity="0.2"/>
<path fill="currentColor" d="M8.83867 13.5888V13.5874C8.8 13.593 8.76133 13.5994 8.72266 13.6036C8.76133 13.5994 8.8 13.5944 8.83867 13.5888Z" fill-opacity="0.2"/>
<path fill="currentColor" d="M16.3472 12.9995L12.7226 16.5088L11.7656 17.4348L12.4969 18.2638L12.7226 18.0332L17.0299 13.6337L16.3472 12.9995Z" fill-opacity="0.2"/>
<path fill="currentColor" d="M7.98949 16.2239L7.52613 16.1191L7.33136 16.8581L6.03972 16.9481L5.77183 16.3146H5.40621L5.28457 17.2406C5.28457 17.2406 4.65457 17.6344 4.69957 18.5077C4.71011 18.7151 4.73121 18.8916 4.75933 19.042C4.77199 19.1102 4.78605 19.1728 4.80082 19.2305C4.87254 19.4653 5.01738 19.691 5.21707 19.8984C5.17418 19.8035 4.59199 18.4774 5.18683 17.6941C5.67832 17.0473 6.63035 16.939 7.4291 17.0775C8.01621 17.1795 8.45285 17.5655 8.61386 17.7265L8.11183 16.9959L7.99019 16.2239H7.98949Z" fill-opacity="0.2"/>
<path fill="currentColor" d="M10.4828 19.6438C10.5039 20.1712 10.1903 20.4784 10.0982 20.5572C10.177 20.5199 10.2515 20.4812 10.3204 20.4426C10.3323 20.4362 10.3436 20.4292 10.3555 20.4229C10.6466 20.2548 10.8484 20.0819 10.9729 19.9567C11.0657 19.8569 11.1325 19.7739 11.1325 19.7739L9.80078 18.1328C9.80078 18.1328 10.4589 19.0272 10.4828 19.6438Z" fill-opacity="0.2"/>
<path fill="currentColor" d="M6.50269 6.29723C6.81276 6.10738 6.98784 5.93863 7.05675 5.84934C6.96464 5.74105 6.83878 5.66652 6.69253 5.63559C6.64331 5.62504 6.59409 5.62012 6.54487 5.62012C6.40917 5.62012 6.27417 5.65879 6.15394 5.73332C5.85019 5.92176 5.72784 6.28879 5.8537 6.58902C5.9662 6.56652 6.19612 6.48566 6.50269 6.29793V6.29723Z" fill-opacity="0.6"/>
<path fill="currentColor" d="M10.6723 5.73281C10.5085 5.63085 10.3166 5.5964 10.1337 5.63507C9.9875 5.66601 9.86164 5.74054 9.76953 5.84882C9.83844 5.93812 10.0135 6.10687 10.3236 6.29671C10.6302 6.48445 10.8601 6.56531 10.9726 6.58781C11.0984 6.28757 10.9768 5.92054 10.6723 5.7321V5.73281Z" fill-opacity="0.6"/>
<path fill="currentColor" d="M10.1537 8.33057H9.895L9.27625 9.17853L8.42828 9.90978H8.28203L7.46359 9.17853L6.87859 8.33057H5.8457L6.81953 9.67564L7.94102 10.9342V13.5942C8.01133 13.6033 8.08234 13.6103 8.15336 13.6153C8.15477 13.6153 8.15617 13.6153 8.15758 13.6153C8.22789 13.6202 8.29891 13.623 8.36922 13.623C8.40789 13.623 8.44656 13.623 8.48523 13.6209C8.49086 13.6209 8.49648 13.6209 8.50141 13.6202C8.53516 13.6188 8.56891 13.6167 8.60266 13.6146C8.60547 13.6146 8.60758 13.6146 8.61039 13.6146C8.64695 13.6117 8.68422 13.6082 8.72078 13.604C8.75945 13.5998 8.79812 13.5949 8.8368 13.5892V10.9729L10.0356 9.58846L10.9715 8.33127H10.153L10.1537 8.33057Z" fill-opacity="0.5"/>
<path fill="currentColor" d="M6.27508 18.3677C5.93828 18.3677 5.66406 18.6419 5.66406 18.9787C5.66406 19.3155 5.93828 19.5897 6.27508 19.5897C6.61188 19.5897 6.88609 19.3155 6.88609 18.9787C6.88609 18.6419 6.61188 18.3677 6.27508 18.3677Z" />
<path fill="currentColor" d="M7.8668 19.3491C7.63266 19.3491 7.44141 19.5397 7.44141 19.7738C7.44141 20.0079 7.63195 20.1992 7.8668 20.1992C8.10164 20.1992 8.29148 20.0087 8.29148 19.7738C8.29148 19.539 8.10094 19.3491 7.8668 19.3491Z" />
<path fill="currentColor" d="M9.52469 19.0566C9.26313 19.0566 9.05078 19.269 9.05078 19.5305C9.05078 19.7921 9.26313 20.0045 9.52469 20.0045C9.78625 20.0045 9.99859 19.7921 9.99859 19.5305C9.99859 19.269 9.78625 19.0566 9.52469 19.0566Z" />
<path fill="currentColor" d="M19.3194 4.54346C19.3194 4.54346 19.3159 4.60322 19.3081 4.7108C19.2772 5.15658 19.1766 6.42291 18.9706 7.64494C18.9538 7.74408 18.9362 7.84322 18.9179 7.94166C18.8384 8.37197 18.7456 8.78752 18.6366 9.14893C18.2577 10.4138 17.3984 11.5775 17.3984 11.5775L17.7591 11.927C17.7591 11.927 17.7612 11.9249 17.7641 11.9213C17.8491 11.8264 19.0838 10.4174 19.5226 8.05768C19.5296 8.019 19.5359 7.98033 19.5423 7.94166C19.5584 7.84252 19.5725 7.74338 19.5837 7.64494C19.7736 6.0158 19.318 4.54346 19.318 4.54346H19.3194Z" fill-opacity="0.4"/>
<path fill="currentColor" d="M16.4922 11.9481L16.5745 12.4192L17.2094 13.0759L17.6812 13.2194L17.7838 12.768L16.9429 11.9277L16.4922 11.9481Z" fill-opacity="0.4"/>
<path fill="currentColor" d="M10.9651 17.3909L10.6304 17.3613L10.3027 17.8423L11.7223 19.4693L12.3017 19.207L12.2103 18.7233L10.9651 17.3909Z" fill-opacity="0.4"/>
<path fill="currentColor" d="M8.92578 6.28387V4.79254C8.92578 4.79254 8.92086 4.3791 8.36891 3.82715C7.83242 4.36363 7.88516 4.76371 7.88516 4.76371V6.27543C7.88516 6.27543 5.79688 7.07418 5.79688 7.57129H11.0021C11.0021 7.07418 8.92578 6.28457 8.92578 6.28457V6.28387Z" fill-opacity="0.4"/>
</svg>
