<svg xmlns="http://www.w3.org/2000/svg" width="24" height="24" viewBox="0 0 24 24" fill="none" id="weapon_bow">
  <path d="M3.1875 11.767L4.42427 10.8923H6.00848V12.8828H4.42427L3.1875 12.0082V11.767ZM14.2515 3.29645C14.1389 3.18374 13.9896 3.19051 13.8455 3.19051H13.3389C13.2046 3.19051 13.0725 3.17697 12.9502 3.24685C12.8354 3.31298 12.7423 3.43696 12.65 3.52938C12.6005 3.57897 12.5502 3.62857 12.5007 3.67891C12.4587 3.72173 12.4114 3.78862 12.5029 3.8044C12.5457 3.8119 12.5952 3.8059 12.638 3.8059H12.8917C13.0425 3.8059 13.2001 3.78636 13.3337 3.87352C13.4635 3.95843 13.5641 4.10572 13.5656 4.262C13.5693 4.54979 13.5656 4.83832 13.5656 5.12611C13.5656 5.27939 13.51 5.39135 13.402 5.49955C13.2939 5.60776 13.1708 5.64232 13.0215 5.64232H12.5337C12.4166 5.64232 12.2921 5.65358 12.1765 5.63105C12.0572 5.60776 11.9604 5.5514 11.8553 5.49428C11.7104 5.4154 11.5656 5.33725 11.4208 5.25835C11.2069 5.14188 10.9675 4.96456 10.7153 4.95929C10.5105 4.95554 8.64709 4.95177 8.44221 4.95929C8.31538 4.96381 8.22083 5.02542 8.13452 5.11107C8.02121 5.22455 7.90714 5.33875 7.79381 5.45221C7.69626 5.5499 7.6107 5.64456 7.6047 5.7926C7.6017 5.87 7.6047 6.69427 7.6047 7.02865C7.6047 7.2428 7.55666 7.52532 7.71728 7.69439C8.06623 8.06181 8.43471 8.41272 8.79268 8.77115C8.93526 8.91391 9.09285 9.03638 9.0936 9.2558C9.09435 9.39931 9.10637 14.2421 9.0936 14.5877C9.08535 14.8034 8.88874 14.9454 8.74914 15.0851C8.50899 15.3256 7.85385 15.9816 7.76604 16.0695C7.68124 16.1544 7.6122 16.2446 7.60395 16.3715C7.59045 16.5947 7.60395 16.8224 7.60395 17.0455V17.9495C7.60395 18.0705 7.62347 18.1839 7.70976 18.2786C7.79606 18.3733 8.14504 18.7422 8.25384 18.8022C8.33715 18.8489 8.42046 18.8557 8.51124 18.8557H10.3326C10.5352 18.8557 10.7664 18.8834 10.9585 18.8045C11.0448 18.7685 11.1266 18.7167 11.2091 18.6716C11.3592 18.5897 11.5093 18.5085 11.6602 18.4266C11.8763 18.3086 12.0752 18.1726 12.3303 18.1726C12.4857 18.1726 13.0192 18.1644 13.1288 18.1734C13.3202 18.1892 13.5183 18.3815 13.5581 18.5679C13.5798 18.6716 13.5746 19.6762 13.4853 19.7949C13.3892 19.9233 13.2527 20.0082 13.0905 20.0097C12.9374 20.0105 12.7844 20.0097 12.6313 20.0097C12.5877 20.0097 12.5359 20.0022 12.4932 20.0127C12.4061 20.033 12.4654 20.1014 12.5037 20.1397C12.6125 20.2501 12.7236 20.36 12.8331 20.4697C12.9277 20.5644 13.032 20.6244 13.1701 20.6251C13.3172 20.6251 13.865 20.6296 13.9911 20.6251C14.1329 20.6206 14.2275 20.5432 14.3213 20.4492C14.5164 20.2539 14.7205 20.0639 14.9081 19.8618C14.999 19.7634 15.0155 19.646 15.0155 19.5206C15.0155 19.3749 15.0305 18.5799 15.0155 18.3312C15.0057 18.1764 14.9081 18.084 14.8076 17.9833L14.4519 17.6271C14.3055 17.4806 14.178 17.3115 13.9521 17.3108C13.4928 17.3093 10.0212 17.3108 9.77953 17.3108C9.62644 17.3108 9.46508 17.3311 9.33225 17.2371C9.27596 17.1973 9.22869 17.141 9.17991 17.0921C9.11837 17.0305 9.06283 16.9757 9.03056 16.8923C8.98104 16.763 9.00354 16.6015 9.00354 16.467C9.00354 16.3325 8.98104 16.1702 9.03056 16.0417C9.07635 15.9237 9.18141 15.8403 9.26846 15.7531C9.38779 15.6337 9.50636 15.5149 9.62569 15.3955C9.72774 15.2933 9.82305 15.1986 9.82905 15.0416C9.8328 14.9544 9.82905 9.26781 9.82905 9.16563C9.82905 8.9357 9.87484 8.67196 9.69847 8.49387C9.50486 8.29851 9.30373 8.10916 9.11462 7.90928C9.00731 7.79583 9.00354 7.66283 9.00354 7.51855C9.00354 7.37429 9.00204 7.21649 9.00354 7.06546C9.00581 6.88362 9.12437 6.77843 9.24219 6.66046C9.3315 6.57104 9.42981 6.50718 9.56115 6.50418C9.70148 6.50116 9.84257 6.50418 9.98289 6.50418H13.6819C13.7885 6.50418 13.8988 6.51243 14.0054 6.50343C14.1569 6.49064 14.2485 6.39145 14.3468 6.29228C14.4654 6.17356 14.8556 5.7941 14.9217 5.7152C15.0117 5.60776 15.014 5.48527 15.014 5.35604V4.40476C15.014 4.32211 15.0237 4.23044 15.0065 4.14929C14.978 4.01478 14.8886 3.93515 14.7971 3.84423C14.6147 3.66162 14.4316 3.47828 14.2492 3.2957L14.2515 3.29645Z" fill="currentColor" fill-opacity="0.2"/>
  <path d="M20.0964 11.3183L22.1243 9.25194L21.5884 8.19847H16.5746L14.1049 10.7457H12.9131V9.3699L11.951 8.40662H10.5882C10.5845 8.39685 9.75521 7.48464 9.75521 7.48464V7.25321L14.4253 7.22993L15.7664 5.84736V3.85389L14.4988 2.45027L12.8704 2.4375L11.825 3.39478L11.8415 4.08533L12.4028 4.47604L12.8148 4.47756V4.88706H12.318L10.9424 4.20403H8.79988L7.13537 2.53819L5.95939 2.5194L5.17892 3.22571L5.18042 4.38587L6.8547 6.0615V7.77469L7.3695 8.40587H6.79241L6.04344 9.23241V10.1371H4.18607L2.4375 11.3739V12.4386L4.18607 13.6754H6.04344V14.5801L6.79241 15.4067H7.3695L6.8547 16.0378V17.751L5.18042 19.4267L5.17892 20.5868L5.95939 21.2931L7.13537 21.2743L8.79988 19.6076H10.9424L12.318 18.9247H12.8148V19.3342L12.4028 19.3358L11.8415 19.7265L11.825 20.4169L12.8704 21.3743L14.4988 21.3615L15.7671 19.9586V17.9651L14.4261 16.5826L9.75596 16.5593V16.3279C9.75596 16.3279 10.586 15.4157 10.589 15.4059H11.9518L12.9139 14.4426V13.0668H14.1056L16.5754 15.614H21.5891L22.125 14.5606L20.0972 12.4942V11.3183H20.0964ZM6.00817 12.8797H4.42397L3.1872 12.0051V11.7639L4.42397 10.8892H6.00817V12.8797ZM20.4199 8.96115C20.4199 8.96115 20.4221 8.96115 20.4229 8.9604C20.4336 8.95813 20.4433 8.95588 20.4538 8.95438C20.4561 8.95438 20.4576 8.95363 20.4598 8.95363C20.4718 8.95213 20.4831 8.95138 20.4936 8.95138H21.2514C21.3024 8.95138 21.3294 8.97017 21.3287 8.99796C21.3287 9.01449 21.3174 9.03553 21.2957 9.05732L19.608 10.7472H18.5633L20.2391 9.05807C20.2811 9.01599 20.3524 8.97917 20.4199 8.96265V8.96115ZM18.6496 8.97242C18.6616 8.9679 18.6729 8.9649 18.6849 8.9619C18.6864 8.9619 18.6871 8.96115 18.6887 8.96115C18.6992 8.95888 18.7097 8.95663 18.7194 8.95513C18.7217 8.95513 18.7239 8.95438 18.7262 8.95363C18.7382 8.95213 18.7494 8.95138 18.7607 8.95138H19.5187C19.6005 8.95138 19.6208 8.99871 19.5623 9.05732L17.8744 10.7472H16.8298L18.5055 9.05807C18.5393 9.02351 18.5933 8.99346 18.6481 8.97392L18.6496 8.97242ZM15.7896 10.0462L16.7712 9.05657C16.829 8.99796 16.9431 8.95063 17.0256 8.95063H17.7836C17.8654 8.95063 17.8857 8.99796 17.8271 9.05657L16.1393 10.7465H15.0947L15.7889 10.0462H15.7896ZM10.5807 9.15801H11.7267C11.7559 9.15801 11.7964 9.17454 11.8167 9.19558L12.1259 9.50516C12.1462 9.52545 12.1634 9.56602 12.1634 9.59533V10.7457H10.5815V9.15801H10.5807ZM7.17964 5.00278C7.12635 5.05537 7.07908 5.11699 7.03781 5.18312L5.93464 4.07931C5.91512 4.05977 5.89937 4.02144 5.89937 3.99441V3.61794C5.89937 3.59014 5.91512 3.55258 5.93464 3.53304L6.22581 3.2415C6.24533 3.22196 6.28359 3.20617 6.31061 3.20617H6.68884C6.71661 3.20617 6.75412 3.22196 6.77364 3.2415L7.88732 4.35658C7.79951 4.40541 7.71847 4.46402 7.65017 4.53165L7.17889 5.00353L7.17964 5.00278ZM6.79316 9.59533C6.79316 9.56602 6.80966 9.52545 6.83068 9.50516L7.13987 9.19558C7.16014 9.17529 7.20066 9.15801 7.22993 9.15801H8.11922L8.3436 9.38269V10.7457H6.79316V9.59533ZM6.79166 11.4971H8.3436V12.2448H6.79166V11.4971ZM7.22993 14.653C7.20066 14.653 7.16014 14.6365 7.13987 14.6154L6.83068 14.3058C6.81041 14.2856 6.79316 14.245 6.79316 14.2157V12.9961H8.3436V14.4283L8.11922 14.653H7.22993ZM6.77439 20.5702C6.75488 20.5898 6.71661 20.6055 6.68959 20.6055H6.31136C6.28359 20.6055 6.24608 20.5898 6.22656 20.5702L5.93539 20.2787C5.91587 20.2592 5.90012 20.2209 5.90012 20.1937V19.8174C5.90012 19.7895 5.91587 19.752 5.93539 19.7325L7.03856 18.6286C7.08058 18.6948 7.12785 18.7564 7.18039 18.8091L7.65092 19.2801C7.71848 19.3477 7.80026 19.407 7.88807 19.4559L6.77439 20.571V20.5702ZM9.83025 15.0385C9.8235 15.1955 9.72819 15.2902 9.62689 15.3924L9.26966 15.75C9.18261 15.8372 9.0768 15.9206 9.03176 16.0386C8.98224 16.1671 9.00474 16.3294 9.00474 16.4639C9.00474 16.5984 8.98149 16.7607 9.03176 16.8892C9.06403 16.9726 9.12032 17.0282 9.18111 17.089C9.22989 17.1379 9.27641 17.1942 9.33345 17.234C9.46704 17.328 9.62764 17.3077 9.78073 17.3077C10.0224 17.3077 13.494 17.3062 13.9533 17.3077C14.1792 17.3084 14.3067 17.4775 14.4531 17.624C14.5716 17.7427 14.6902 17.8615 14.8088 17.9802C14.9093 18.0809 15.0069 18.1733 15.0167 18.3281C15.0317 18.5775 15.0167 19.3725 15.0167 19.5176C15.0167 19.6431 15.0002 19.761 14.9093 19.8587C14.721 20.0608 14.5176 20.2509 14.3225 20.4463C14.2287 20.5402 14.1341 20.6175 13.9923 20.6222C13.8662 20.6267 13.3184 20.6222 13.1713 20.6222C13.034 20.6222 12.9289 20.5613 12.8343 20.4666C12.7248 20.3569 12.6137 20.2479 12.5049 20.1368C12.4666 20.0983 12.4081 20.0301 12.4944 20.0096C12.5372 19.9991 12.5897 20.0066 12.6325 20.0066C12.7856 20.0066 12.9386 20.0074 13.0917 20.0066C13.2538 20.0059 13.3904 19.9204 13.4865 19.7917C13.575 19.6731 13.581 18.6685 13.5593 18.5648C13.5203 18.3792 13.3221 18.1868 13.13 18.1703C13.0205 18.1613 12.4869 18.1695 12.3315 18.1695C12.0764 18.1695 11.8775 18.3055 11.6614 18.4235C11.5113 18.5054 11.3612 18.5866 11.2103 18.6685C11.1286 18.7128 11.0468 18.7654 10.9597 18.8014C10.7683 18.8803 10.5364 18.8526 10.3338 18.8526H8.51244C8.42166 18.8526 8.33835 18.8458 8.25504 18.7991C8.14624 18.7391 7.79351 18.3664 7.71096 18.2755C7.62467 18.1816 7.60515 18.0673 7.60515 17.9464V17.0424C7.60515 16.8193 7.59165 16.5916 7.60515 16.3684C7.61265 16.2414 7.68244 16.1505 7.76724 16.0664C7.85505 15.9792 8.51019 15.3225 8.75034 15.082C8.88994 14.9423 9.08655 14.8003 9.0948 14.5846C9.10757 14.239 9.09555 9.39546 9.0948 9.25269C9.0933 9.03328 8.93571 8.91006 8.79388 8.76802C8.43591 8.40962 8.06743 8.05871 7.71847 7.69129C7.55711 7.52147 7.6059 7.23969 7.6059 7.02553C7.6059 6.69116 7.6029 5.86613 7.6059 5.78949C7.6119 5.64146 7.69821 5.54604 7.79501 5.44911C7.90834 5.33565 8.02241 5.22143 8.13572 5.10797C8.22127 5.02232 8.31658 4.96069 8.44341 4.95619C8.64754 4.94867 10.5117 4.95244 10.7165 4.95619C10.9687 4.96146 11.2081 5.13877 11.422 5.25525C11.5668 5.33415 11.7117 5.41228 11.8565 5.49118C11.9616 5.54829 12.0584 5.60464 12.1777 5.62794C12.2933 5.65048 12.4178 5.63921 12.5349 5.63921H13.0227C13.172 5.63921 13.2936 5.60616 13.4032 5.49645C13.5105 5.38899 13.5668 5.27629 13.5668 5.12301C13.5668 4.83521 13.5705 4.54667 13.5668 4.25889C13.5653 4.10184 13.4647 3.95458 13.3349 3.87041C13.2013 3.78326 13.0445 3.8028 12.8929 3.8028H12.6392C12.5957 3.8028 12.5469 3.80955 12.5041 3.80128C12.4126 3.78551 12.4606 3.71863 12.5019 3.67581C12.5514 3.62546 12.6017 3.57587 12.6512 3.52628C12.7435 3.43386 12.8366 3.30913 12.9514 3.24375C13.073 3.17387 13.2058 3.18739 13.3401 3.18739H13.8467C13.9908 3.18739 14.1409 3.18064 14.2527 3.29334C14.4351 3.47593 14.6182 3.65927 14.8005 3.84186C14.8921 3.93354 14.9814 4.01243 15.0099 4.14694C15.0272 4.22884 15.0174 4.31976 15.0174 4.40241V5.35369C15.0174 5.48291 15.0152 5.60541 14.9251 5.71284C14.8591 5.79099 14.4688 6.17046 14.3503 6.28991C14.2512 6.3891 14.1596 6.48904 14.0088 6.50106C13.9022 6.51007 13.7919 6.50181 13.6854 6.50181H9.98634C9.84602 6.50181 9.70493 6.49881 9.5646 6.50181C9.43326 6.50483 9.33495 6.56869 9.24564 6.65811C9.12784 6.77608 9.00926 6.88127 9.00701 7.06311C9.00551 7.21414 9.00701 7.36517 9.00701 7.5162C9.00701 7.66723 9.01076 7.79273 9.11807 7.90693C9.30718 8.10681 9.50831 8.29616 9.70192 8.49152C9.87829 8.66961 9.8325 8.93334 9.8325 9.16327C9.8325 9.26546 9.83627 14.952 9.8325 15.0392L9.83025 15.0385ZM12.1627 14.2149C12.1627 14.2442 12.1462 14.2848 12.1252 14.3051L11.816 14.6147C11.7957 14.635 11.7552 14.6522 11.7259 14.6522H10.58V12.9954H12.1619V14.2149H12.1627ZM10.5807 12.244V11.4964H19.3461V12.244H10.5807ZM17.8466 14.9167H17.0887C17.0474 14.9167 16.9986 14.9047 16.9521 14.8859C16.9409 14.8814 16.9296 14.8762 16.9183 14.8701C16.8853 14.8529 16.856 14.8326 16.8343 14.8108L15.8212 13.7896L15.0332 12.9954H16.0771L17.8902 14.8108C17.948 14.8686 17.9284 14.9167 17.8466 14.9167ZM19.5825 14.9167H18.8244C18.8132 14.9167 18.8019 14.916 18.7899 14.9145C18.7877 14.9145 18.7854 14.9137 18.7832 14.913C18.7734 14.9115 18.7629 14.9092 18.7524 14.907C18.7509 14.907 18.7502 14.907 18.7487 14.9062C18.7367 14.9032 18.7254 14.8994 18.7134 14.8957C18.6586 14.8762 18.6046 14.8461 18.5708 14.8115L16.7697 12.9961H17.8136L19.6268 14.8115C19.6845 14.8694 19.665 14.9175 19.5833 14.9175L19.5825 14.9167ZM21.3589 14.8108C21.3649 14.8168 21.3694 14.8228 21.3739 14.8288C21.3956 14.8581 21.3971 14.8829 21.3806 14.8987C21.3679 14.91 21.3459 14.9167 21.3152 14.9167H20.5573C20.5468 14.9167 20.5356 14.916 20.5236 14.9145C20.5221 14.9145 20.5198 14.9137 20.5176 14.9137C20.5071 14.9122 20.4973 14.91 20.4868 14.9077C20.4861 14.9077 20.4846 14.9077 20.4838 14.907C20.4598 14.9009 20.4351 14.8919 20.4116 14.8822C20.3689 14.8634 20.3299 14.8386 20.3029 14.8115L18.5018 12.9961H19.5457L21.3589 14.8115V14.8108Z" fill="currentColor"/>
  <path d="M18.6494 8.97221C18.6614 8.96771 18.6727 8.96469 18.6847 8.96169C18.6862 8.96169 18.687 8.96094 18.6885 8.96094C18.699 8.95869 18.7095 8.95642 18.7192 8.95492C18.7215 8.95492 18.7237 8.95417 18.726 8.95342C18.738 8.95192 18.7492 8.95117 18.7604 8.95117H19.5185C19.6002 8.95117 19.6205 8.99852 19.562 9.05711L17.8742 10.747H16.8296L18.5053 9.05786C18.5391 9.0233 18.5932 8.99325 18.6479 8.97371L18.6494 8.97221ZM19.5822 14.9165H18.8244C18.8131 14.9165 18.8019 14.9158 18.7899 14.9143C18.7876 14.9143 18.7852 14.9135 18.7829 14.9128C18.7732 14.9113 18.7627 14.909 18.7522 14.9068C18.7507 14.9068 18.7499 14.9068 18.7485 14.906C18.7365 14.903 18.7252 14.8992 18.7132 14.8955C18.6584 14.8759 18.6044 14.8459 18.5706 14.8113L16.7695 12.9959H17.8134L19.6265 14.8113C19.6842 14.8692 19.6647 14.9173 19.583 14.9173L19.5822 14.9165Z" fill="currentColor" fill-opacity="0.2"/>
</svg>