<svg xmlns="http://www.w3.org/2000/svg" width="24" height="24" viewBox="0 0 24 24" fill="none" id="weapon_hammer">
<path d="M13.0516 16.725V15.133C13.0516 15.0581 12.8822 14.9946 12.682 15.0004H11.0961C10.8959 15.0004 10.7266 15.0581 10.7266 15.133V16.725C10.742 16.725 13.0516 16.725 13.0516 16.725Z" fill="currentColor" fill-opacity="0.13"/>
<path d="M13.0516 18.4496V16.8576C13.0516 16.7827 12.8822 16.7192 12.682 16.725H11.0961C10.8959 16.725 10.7266 16.7827 10.7266 16.8576V18.4496C10.742 18.4496 13.0516 18.4496 13.0516 18.4496Z" fill="currentColor" fill-opacity="0.13"/>
<path fill-rule="evenodd" clip-rule="evenodd" d="M17.5508 5.09961H5.92578V12.7496H17.5508V5.09961ZM13.8008 7.12461H9.60078V10.6496H13.8008V7.12461Z" fill="currentColor" fill-opacity="0.14"/>
<path fill-rule="evenodd" clip-rule="evenodd" d="M17.2966 13.335H13.3591V21.93L10.1266 21.9375V13.335H6.15154L5.34154 12.5325V11.07L2.85156 9.045L5.34906 7.0125V5.385L6.14406 4.59H9.71404L11.6716 2.0625L13.8015 4.59H17.3265L18.129 5.4075V7.05L20.6191 9.0375L18.129 11.0475V12.57L17.2966 13.335ZM10.7341 4.5225C11.0266 4.1625 11.4241 3.66 11.7016 3.2775C11.861 3.46466 12.0332 3.67264 12.2013 3.87553C12.3969 4.11169 12.5867 4.34096 12.7441 4.5225H10.7341ZM11.7242 21.2062H11.7231C11.4204 21.2081 11.121 21.21 10.8766 21.21V19.1325H12.6091V21.2025C12.3479 21.2025 12.0352 21.2044 11.7259 21.2062H11.7255H11.7251H11.7249H11.7247H11.7242ZM4.44244 9.36621L4.44265 9.36637C4.68989 9.56415 4.93156 9.75748 5.29656 10.0575V8.03248C4.98282 8.30048 4.53807 8.65959 4.19562 8.93612L4.19521 8.93646L4.19358 8.93777C4.14383 8.97793 4.09624 9.01635 4.05156 9.05248C4.19397 9.16742 4.3189 9.26737 4.44244 9.36621ZM19.4266 9.06C19.2166 9.2325 18.5565 9.7725 18.1815 10.065V8.055C18.4815 8.295 19.1791 8.8575 19.4266 9.06ZM10.8766 14.505H12.6091V13.3275H10.8766V14.505ZM9.9391 7.4025H13.5016C13.5167 7.41765 13.5305 7.4313 13.5432 7.44384L13.5433 7.44399C13.6246 7.52449 13.6597 7.55919 13.7116 7.65V10.2375C13.6686 10.2739 13.6416 10.3044 13.6153 10.3343C13.5819 10.3721 13.5494 10.4089 13.4866 10.455H9.99906C9.95496 10.3864 9.90447 10.3434 9.84964 10.2968C9.82056 10.272 9.79026 10.2462 9.75906 10.215V7.6125C9.79364 7.57792 9.81241 7.54862 9.83029 7.5207C9.85506 7.48204 9.87811 7.44606 9.9391 7.4025ZM10.9441 9.5475H12.5341V8.4375H10.9441V9.5475ZM10.8766 18.36H12.6091V17.1825H10.8766V18.36ZM12.6091 16.4325H10.8766V15.255H12.6091V16.4325ZM17.0116 5.34H6.45156C6.36906 5.4225 6.17406 5.6175 6.09906 5.7V12.225C6.18316 12.3091 6.24801 12.3697 6.30846 12.4261C6.36121 12.4754 6.41063 12.5216 6.46656 12.5775H17.0341C17.1316 12.5025 17.3116 12.33 17.3866 12.255V5.7075C17.3022 5.62309 17.2555 5.57818 17.2078 5.53238C17.1581 5.4846 17.1072 5.43566 17.0116 5.34ZM14.4691 10.4475L14.4616 10.455C14.3116 10.605 14.1316 10.785 13.9816 10.9425L13.7191 11.205H9.78156L9.76656 11.19L9.47406 10.8975C9.47179 10.8952 9.46883 10.893 9.46561 10.8905C9.45816 10.8848 9.44929 10.878 9.44406 10.8675L9.43656 10.86C9.39561 10.819 9.35313 10.7774 9.3091 10.7341C9.21603 10.6427 9.11597 10.5445 9.00906 10.4325V7.395L9.02406 7.38C9.28253 7.17321 9.50762 6.95529 9.68969 6.77901C9.71894 6.75069 9.74706 6.72345 9.77406 6.6975H13.7041L14.4766 7.3875L14.4841 9.975C14.4812 10.0655 14.4795 10.1453 14.478 10.2133C14.4755 10.3255 14.4737 10.4055 14.4691 10.4475Z" fill="currentColor"/>
</svg>